<svg xmlns="http://www.w3.org/2000/svg" viewBox="0 0 490.08 223.29"><defs><style>.a{fill:#fff;}.b{fill:none;stroke:#231f20;stroke-miterlimit:10;stroke-width:3.24px;}.c{fill:#231f20;}.d{fill:#ffc627;}</style></defs><title>big-logo-on-white</title><path class="a" d="M185.25,126.64c-4.84,60.19-47.51,105.88-95.3,102s-82.61-55.76-77.77-116,47.51-105.88,95.3-102,82.61,55.76,77.77,116" transform="translate(-8.26 -7.22)"/><ellipse class="b" cx="98.71" cy="119.68" rx="109.34" ry="86.82" transform="translate(-36.75 201.26) rotate(-85.4)"/><path class="a" d="M184,126.54c-4.77,59.32-46.82,104.34-93.92,100.55S8.66,172.14,13.43,112.82,60.25,8.48,107.35,12.27,188.77,67.22,184,126.54" transform="translate(-8.26 -7.22)"/><path class="c" d="M95.61,228.93c-1.88,0-3.79-.08-5.66-0.23a71.8,71.8,0,0,1-33.26-11.36A88.81,88.81,0,0,1,31,191.68c-14.68-21.88-21.48-49.94-19.14-79C14.06,84.87,24.54,59.05,41.32,40s38.28-29.57,60.49-29.57c1.88,0,3.79.08,5.66,0.23A71.8,71.8,0,0,1,140.74,22a88.81,88.81,0,0,1,25.73,25.66c14.68,21.88,21.48,49.94,19.14,79-2.24,27.82-12.72,53.64-29.5,72.7s-38.28,29.57-60.49,29.57m6.21-215.27c-21.27,0-41.89,10.11-58.07,28.47C27.42,60.67,17.22,85.82,15,113c-2.28,28.33,4.33,55.65,18.6,76.93s34.28,33.81,56.56,35.6c1.79,0.14,3.61.22,5.41,0.22,21.27,0,41.89-10.11,58.07-28.47,16.33-18.53,26.53-43.68,28.71-70.82,2.28-28.33-4.33-55.65-18.6-76.93s-34.28-33.81-56.56-35.6c-1.79-.14-3.61-0.22-5.41-0.22" transform="translate(-8.26 -7.22)"/><path class="d" d="M226.14,113.34L222.37,107H200.74l10.23,17c0.63-.32,1.25-0.65,1.87-1a74.44,74.44,0,0,0,13.31-9.58" transform="translate(-8.26 -7.22)"/><path class="d" d="M230.68,126.46c0.59-.83,1.17-1.67,1.74-2.52l-0.06-.1L228.3,117l-0.16.19a42.45,42.45,0,0,1-14.65,10.94l6.6,10.94,0.25-.24a97.72,97.72,0,0,0,10.35-12.34" transform="translate(-8.26 -7.22)"/><path class="d" d="M222.61,143.24l0.94,1.57,9.32,15.45v34h19.19V160.75L284.46,107H263.07l-20.29,34.47-5.86-9.9-1.46-2.47a87.55,87.55,0,0,1-12.84,14.17" transform="translate(-8.26 -7.22)"/><polygon class="d" points="299.91 152.18 339.76 152.18 339.76 135.19 299.91 135.19 299.91 115.52 345.01 115.52 345.01 99.38 281.33 99.38 281.33 186.89 349.17 186.89 349.17 170.76 299.91 170.76 299.91 152.18"/><polygon class="d" points="357.11 116 384.86 115.88 384.86 187.02 404.05 187.02 404.05 115.88 431.55 116 431.55 99.87 357.11 99.87 357.11 116"/><path class="d" d="M467,135.39a20.46,20.46,0,0,0,3-.17V107H450.8v19.75A20.17,20.17,0,0,0,467,135.39" transform="translate(-8.26 -7.22)"/><path class="d" d="M450.8,133.19v61.05H470V139.79l-0.35.07c-7.51,1.33-14-.84-18.84-6.67" transform="translate(-8.26 -7.22)"/><path class="c" d="M450.8,126.72a19.77,19.77,0,0,1-2.92-6.35,31.58,31.58,0,0,1,.25-15.31,75,75,0,0,1,9-21.66c4.21-7,8.71-13.81,13.07-20.72a2.82,2.82,0,0,0,.86-2.19c-0.8-.74-1.83-1.67-2.82-2.63a3.28,3.28,0,0,0-4-.67c-0.83.4-1.69,0.76-2.48,1.23-1.92,1.14-3.82,2.32-5.72,3.5a44.79,44.79,0,0,1-6.38,3.39,1,1,0,0,1-.22-1.2c0.36-1.09.73-2.19,1-3.3a5.3,5.3,0,0,0,0-3.4c-0.85-2-3.52-3.29-6-3a3.71,3.71,0,0,1,.37,3.45c-1.2,4.53-3.59,8.53-5.87,12.52-2,3.48-4.11,6.88-6.12,10.35a34.71,34.71,0,0,0-3.33,8.34,13.36,13.36,0,0,0,2.85,12.73,7.54,7.54,0,0,0,3,2.52,16,16,0,0,1-1.19-9.59c1-5.65,4.08-10.35,7.4-15,0.88,1.16,1.51,2.33,3.15,2.64a9.64,9.64,0,0,1,1.19-8.28c3.44-5.71,8.78-9,14.62-11.77a0.71,0.71,0,0,1-.14,1,105.34,105.34,0,0,0-12.79,28c-2.59,8.76-4.28,17.65-3,26.87a29.69,29.69,0,0,0,5.26,13.63c0.33,0.46.68,0.9,1,1.33v-6.47Z" transform="translate(-8.26 -7.22)"/><path class="c" d="M497.92,83.32a51.84,51.84,0,0,0-4-16.52,30.6,30.6,0,0,0-14.8-15,57.63,57.63,0,0,0-12-3.86A140.67,140.67,0,0,0,450.27,45a108.67,108.67,0,0,1-17.4-3.37,22.48,22.48,0,0,1-14.6-12.54c-1-2.15-1.78-4.43-2.68-6.64-0.19-.47-0.19-1.1-1-1.2a33.27,33.27,0,0,0-.09,7.13,18.52,18.52,0,0,0,2.74,8.49c2.9,4.58,7.16,7.36,12.17,9.07,7.64,2.61,15.62,3.43,23.59,4.16a164.75,164.75,0,0,1,18.54,2.41,34,34,0,0,1,11.64,4.28c5,3.18,8,7.81,9.93,13.25A61.73,61.73,0,0,1,495.67,99a31.89,31.89,0,0,1-1.82,7.41,3,3,0,0,1-.12-1.77,38,38,0,0,0-2-15.7c-1.27-3.73-3.41-6.92-7.16-8.66a4.69,4.69,0,0,0-5.07.37,7.7,7.7,0,0,1,7.84,2.78,17.86,17.86,0,0,1,3.58,6.15,42,42,0,0,1,.59,23.28c-1.73,7.15-5.71,12.83-11.27,17.59A19.28,19.28,0,0,1,470,135.22v4.57a27.91,27.91,0,0,0,17-10.64c6.64-8.45,9.73-18.25,10.89-28.75a80.17,80.17,0,0,0,.08-17.08" transform="translate(-8.26 -7.22)"/><path class="c" d="M470,135.69v-0.47a20.47,20.47,0,0,1-3,.17,20.17,20.17,0,0,1-16.18-8.67v6.47c4.84,5.84,11.33,8,18.84,6.67l0.35-.07v-4.1Z" transform="translate(-8.26 -7.22)"/><path class="c" d="M368.38,104.16a22.67,22.67,0,0,0,6.06-3.76A48.27,48.27,0,0,0,386.9,85.67a18.6,18.6,0,0,0,2.17-10c-0.21-3.15-1.14-4.38-4.62-5.63a15.1,15.1,0,0,1,.79,10.6A39.73,39.73,0,0,1,372.69,99.9,14.41,14.41,0,0,1,369.4,102c-2.34,1.06-3.61.59-4.52-1.75a10.05,10.05,0,0,1-.7-5.19,25,25,0,0,1,1.94-6.62,72.12,72.12,0,0,1,7-11.67c7.13-10.16,13.53-20.79,19.95-31.4a14.16,14.16,0,0,0,1.53-4.1,7.22,7.22,0,0,0-2-6.79,8.52,8.52,0,0,0-2.57-1.93c-1-.52-1.32-1.87-2.44-2.19a0.52,0.52,0,0,0-.28.66,7.19,7.19,0,0,1-.42,5.61,31.81,31.81,0,0,1-1.8,3.75c-2.65,4.43-5.3,8.86-8.1,13.2a51.7,51.7,0,0,1-4.87,6.73,13.66,13.66,0,0,0-9-1.64A22.13,22.13,0,0,0,350.83,65c-5.74,5.49-9.12,12.33-11,20-0.84,3.47-1.35,7-.42,10.51,0.85,3.25,2,6.32,5,8.26a3.25,3.25,0,0,0,4.25-.22,17.34,17.34,0,0,0,1.32-1.3c2.85-2.88,4.83-6.38,7.07-9.7a7.54,7.54,0,0,1,1.75-2.21c0,1.3-.06,2.31,0,3.3,0.29,4.32,2,7.88,5.77,10.23a3.89,3.89,0,0,0,3.73.33m-6-33.46c1.69,2.83,1,5.51-.23,8.34-2.75,6.17-6.8,11.52-10.5,17.09-0.89,1.35-1.91,2.61-2.89,3.89a5.29,5.29,0,0,1-2.38,1.88,8,8,0,0,1-2.41-7.6A32.31,32.31,0,0,1,347.3,85a64.27,64.27,0,0,1,13-17.52,17.77,17.77,0,0,1,6.14-4,5.4,5.4,0,0,1,4.47.13L366.57,71c-1.44-.41-2.73-1.38-4.24-0.7a1.21,1.21,0,0,0,.06.44" transform="translate(-8.26 -7.22)"/><path class="c" d="M315.43,75.87c-2.52,4.78-4.6,9.75-5,15.23-0.34,4.26.57,8.13,3.68,11.25a4.35,4.35,0,0,0,5.25,1,33.08,33.08,0,0,0,10.25-7c4.92-4.83,7.62-10.93,9.8-17.32a13.43,13.43,0,0,0,.56-5c-0.11-2.29-1.45-3.57-3.94-3.72a14.47,14.47,0,0,1,.41,7,40.15,40.15,0,0,1-3,9.2,27.26,27.26,0,0,1-12.77,14.38c-2.63,1.37-4.35.53-4.78-2.39a15.05,15.05,0,0,1,.44-6.63c1.66-5.47,4.87-10.09,8-14.76a2.82,2.82,0,0,1,1.54-1,22.67,22.67,0,0,0,7.35-4.71,45.11,45.11,0,0,0,12.66-20.35,21.87,21.87,0,0,0,1-10,12.33,12.33,0,0,0-3.71-7.5,5.12,5.12,0,0,0-4.36-1.29c0.36,2.08-.44,3.81-1.18,5.57a87.43,87.43,0,0,1-4.13,8.26c-4.08,7.44-8.75,14.51-13.4,21.59-0.84,1.27-1.62,2.58-2.42,3.87-0.75-4.67,1.32-8.21,5-11.43a10.36,10.36,0,0,0-4.4,1.55,7.72,7.72,0,0,0-2.87,10.11,3.69,3.69,0,0,1,0,4M343,48.35c0,9.63-9.76,24.77-17,26.7,6-8.89,11.29-17.81,17-26.7" transform="translate(-8.26 -7.22)"/><path class="c" d="M392.51,70.67a18,18,0,0,0,1.13,4.68,3,3,0,0,1,.06,2.2,31.05,31.05,0,0,0-1,15.52,20.43,20.43,0,0,0,3.69,8.62c0.87,1.19,2,2.3,3.63,2.08a9.86,9.86,0,0,0,3.32-.89c2.11-1.11,4.32-2,6.36-3.28A51.68,51.68,0,0,0,420,91.8,28.74,28.74,0,0,0,427.74,77a10.43,10.43,0,0,0,.2-3.22c-0.25-2.26-1.2-3.15-3.79-3.54,1.44,5.49-.35,10.38-2.91,15a34.53,34.53,0,0,1-8.3,9.84,28.84,28.84,0,0,1-10,5.61c-2.24.69-3.14,0.3-4-1.8a7.3,7.3,0,0,1-.55-2.23,37.28,37.28,0,0,1,.88-11.92,7.06,7.06,0,0,1,1.12-3,10.45,10.45,0,0,0,7.24-.72,47.84,47.84,0,0,0,13.48-9.23,17.29,17.29,0,0,0,2.72-3.44,5.9,5.9,0,0,0,0-6.92c-1.19-1.81-2.73-3.35-4-5.07a3.17,3.17,0,0,0-3.65-1.2,23.43,23.43,0,0,0-6.27,2.29A33.91,33.91,0,0,0,397.21,69.8l-1.72,2.77c0-1.23,0-1.9,0-2.57a6.22,6.22,0,0,1,2.6-5.62c0.91-.71,1.86-1.38,2.79-2.05A1.9,1.9,0,0,0,402,61c-2.74-.71-5.16-0.51-7,1.79a10.59,10.59,0,0,0-2.53,7.91m21.53-7a6.62,6.62,0,0,1,1.47-.64c1-.31,2.17-0.83,3,0.22a3.73,3.73,0,0,1,.86,3.4,15.45,15.45,0,0,1-5.15,7.48,25.79,25.79,0,0,1-7.47,4.48,10.4,10.4,0,0,1-5.69.56c3-6.52,7-11.88,13-15.5" transform="translate(-8.26 -7.22)"/><path class="c" d="M309.81,62a7.89,7.89,0,0,0-3.88-2.79,14.17,14.17,0,0,0-5.58-.64A21.25,21.25,0,0,0,289,62.82a59.15,59.15,0,0,1-11.44,6.55,27.21,27.21,0,0,1-7.75,1.94c3.29-5.12,6.75-9.52,11.4-13a8.46,8.46,0,0,0-4.47-.67c-3.61.3-7.22,0.55-10.82,0.85a81.45,81.45,0,0,0-13.72,1.83c-4.67,1.21-8.51,3.61-11,7.83a8.47,8.47,0,0,0-.05,8.6,4.27,4.27,0,0,0,2.54,2.2,7.06,7.06,0,0,0,8.77-4,1.22,1.22,0,0,0,.13-1.41,2,2,0,0,0-1,1.33,7,7,0,0,1-4.77,3.37A4,4,0,0,1,242,75.64a6.23,6.23,0,0,1,.44-5.56,15.18,15.18,0,0,1,7.33-6.1c5.18-2.22,10.53-1.84,15.89-.88a1,1,0,0,1,.3.37c-1.5,2.28-2.44,4.92-4.08,7.07a7.6,7.6,0,0,1-4.65-2.34,1.72,1.72,0,0,0-.67,2c0.47,2,2.61,2.2,3.87,3.29-3.9,10.22-11.07,17.6-20,24.1,0.47-1.78.88-3.09,1.16-4.42,0.86-4,1.18-8.1-.25-12.08a10.34,10.34,0,0,0-7.94-7c-3.71-.84-7.19,0-10.65,1.15a39.13,39.13,0,0,0-8.08,4.08c3.53-10.28,9.14-18.73,15.22-26.82,1.73,0.32,3.23.69,4.75,0.87A54.84,54.84,0,0,0,248.4,53a84.53,84.53,0,0,0,24.92-7.3,41,41,0,0,0,11.15-7.35c2.48-2.36,4.65-5,5.61-8.34,1.77-6.27-.11-10.25-6.43-12a30.91,30.91,0,0,0-12.39-.58,65.5,65.5,0,0,0-24,8.38c-9.33,5.28-17.85,11.55-24.87,19.73a2.53,2.53,0,0,1-.6.37A10.56,10.56,0,0,1,219.47,43a12.25,12.25,0,0,1-2.13-8.11,22.75,22.75,0,0,1,5-11.77A37.78,37.78,0,0,1,242.74,10c5.25-1.39,10.51-1.58,15.48,1.23a0.76,0.76,0,0,0,1.19-.24,4.19,4.19,0,0,0-.52-0.42c-0.47-.27-0.94-0.53-1.42-0.76C250.87,6.64,244,6.62,237.16,8.5,227.4,11.18,220.5,17.31,217,26.91a18.54,18.54,0,0,0,3,18.71,2.6,2.6,0,0,1,.87,1.5c-1.17,1.56-2.43,3.2-3.64,4.88-7.1,9.83-11.67,20.55-11.72,32.91a5.76,5.76,0,0,1-1.41,4c-9.05,10.11-14.55,21.83-15.76,35.44-0.05.58,0.09,1.27-.68,1.63a37.23,37.23,0,0,1-4.08-2.07c-7.57-4.5-10.14-14.09-7.6-21.65a19.17,19.17,0,0,1,2.92-5.55c-0.39-.2-0.73.87-1,0.49-2.89,3.4-4.7,6-4.74,10.69A20.85,20.85,0,0,0,179.11,123a37.83,37.83,0,0,0,7.77,5.77,2.36,2.36,0,0,1,1.3,2,32,32,0,0,0,1.24,6.8c1.81,5.67,5.12,10.14,11,11.87s11.62,1.35,16.87-2.14a53.71,53.71,0,0,0,5.32-4.05l-2.26-3.75-0.28-.46c-4.88,4.78-10.41,8.55-17.44,8.49a6.18,6.18,0,0,1-4.39-1.75c-4.22-4-5.57-9.19-6-14.92a35.45,35.45,0,0,0,10.75.24,40.08,40.08,0,0,0,10.47-3l-0.15-.25-2.25-3.73-0.12-.19a34.74,34.74,0,0,1-8.57,3.14,33,33,0,0,1-10.06.28,15.42,15.42,0,0,1,.44-5.95c0.65-3.08,1.54-6.12,2.37-9.17a21.32,21.32,0,0,1,4.85-8.82,48.82,48.82,0,0,1,7.73-7.32c0.54,0.7,1.08,1.35,1.56,2,2.76,4,6.73,5.75,11.36,6.21,5.34,0.53,8.17.09,14.77-1.75,0.41,0.54-.14.82-0.37,1.12a73.47,73.47,0,0,1-8.9,9.64l0,0.06,1.88,3.17L228.3,117a64.79,64.79,0,0,0,9.88-14.73,3.44,3.44,0,0,1,1.73-1.75,44.56,44.56,0,0,0,7.3-4.43A3.47,3.47,0,0,1,249.64,95c-0.32,0-1.92,3.53-2.15,3.95q-1.13,2-2.28,4.07-2.29,4-4.68,8c-2.53,4.24-5.09,8.46-7.84,12.56l-0.26.38,3,5.13c1.3-1.74,2.55-3.5,3.75-5.25,4.07-5.94,7.67-12.24,11.28-18.47C256,96,261.4,86.73,266.38,77.16c1-2,2.05-3.48,4.7-3.64a24.08,24.08,0,0,0,9.78-2.88,0.87,0.87,0,0,1-.22,1,36,36,0,0,0-5.39,14.62,23.63,23.63,0,0,0,1.53,12.69c2.28,5.27,7.73,7.85,13.59,5.21A30.27,30.27,0,0,0,302,94.52c2-2.58,3-5.55,4-8.55a16.06,16.06,0,0,0,.93-7.49,3.37,3.37,0,0,1,.91-2.95,23,23,0,0,0,2.73-3.73,9.23,9.23,0,0,0-.67-9.81m-71-20.25a99,99,0,0,1,18.62-15.87,47.62,47.62,0,0,1,17.47-7,13.74,13.74,0,0,1,6.41.21c3.09,0.93,4.49,3.29,3.72,6.41a15.47,15.47,0,0,1-2.77,5.55,42.76,42.76,0,0,1-11,9.87c-7.7,5.1-15.93,9-25.08,10.78a35.79,35.79,0,0,1-13.78.24,3.43,3.43,0,0,1-1.73-.71,111.4,111.4,0,0,1,8.09-9.51m-37.61,58.79c1.21-2.87,3.18-5.17,5-7.65,0.77,0.52.82,1.31,1.22,2.06l-6.19,5.59M239,98a1.73,1.73,0,0,1-.91,1c-4.07,2.16-8.35,3.73-13,3.34A12.47,12.47,0,0,1,213.62,93a5,5,0,0,1-.08-1,14.54,14.54,0,0,1,9.4-2.54c2.27,0.16,3.51,1.14,4.79,3.92,0.25-2.3-.14-3.06-1.73-3.93-2.15-1.17-4.44-1.05-6.76-.74a20.73,20.73,0,0,0-5.53,2,1.27,1.27,0,0,1-.53-1.5,10.85,10.85,0,0,1,4.9-8.45A36.09,36.09,0,0,1,229,75.54c4.61-1.18,10.17,1.38,11.66,7.53,1.25,5.15,0,10.07-1.74,14.92M300.79,84.4a44.08,44.08,0,0,1-3.57,10.22,15.51,15.51,0,0,1-7.07,7.39c-3.36,1.63-5,1.09-7.28-2-2-2.72-2.19-6-1.63-9.11A42.34,42.34,0,0,1,288,74.33a1.1,1.1,0,0,1,.83-0.62c2,6.52,5.4,8.32,12,6.21a10.45,10.45,0,0,1,0,4.49m6.5-18.45a13,13,0,0,1-2.75,6.19c-1-.33-3.29-2.61-4.39-1.84a1.45,1.45,0,0,0-.25,1.72c0.7,1.75,1.57,4.11-.43,5.41-1.54,1-3.1,1.39-4.74.44a5.84,5.84,0,0,1-2.6-6.38c0.95-4.84,6.28-9.57,11.38-10.08,2.49-.25,4.16,1.78,3.77,4.54" transform="translate(-8.26 -7.22)"/><path class="d" d="M230.68,126.46a97.72,97.72,0,0,1-10.35,12.34l-0.25.24,0.28,0.46,2.26,3.75a87.52,87.52,0,0,0,12.84-14.17l-3-5.13c-0.57.84-1.15,1.68-1.74,2.52" transform="translate(-8.26 -7.22)"/><path class="c" d="M228.14,117.17l0.16-.19-0.24-.41-1.88-3.17,0-.06a74.42,74.42,0,0,1-13.31,9.58c-0.62.35-1.24,0.68-1.87,1l0.12,0.19,2.25,3.73,0.15,0.25a42.46,42.46,0,0,0,14.65-10.94" transform="translate(-8.26 -7.22)"/><path class="c" d="M307.29,217.35a4.76,4.76,0,0,0,1.46,1,4.35,4.35,0,0,0,1.79.37,4.28,4.28,0,0,0,1.77-.37,4.8,4.8,0,0,0,1.45-1,4.63,4.63,0,0,0,1-1.46,4.62,4.62,0,0,0,0-3.57,4.74,4.74,0,0,0-2.43-2.47,4.3,4.3,0,0,0-1.77-.37,4.37,4.37,0,0,0-1.79.37,4.7,4.7,0,0,0-1.46,1,4.92,4.92,0,0,0-1,1.47,4.5,4.5,0,0,0,0,3.57,4.77,4.77,0,0,0,1,1.46" transform="translate(-8.26 -7.22)"/><path class="c" d="M200.52,226.38H471.09V201.44H200.52v24.94Zm254.24-19.81h11v2.79H458v3.4h6.89v2.94H458v3.21h8.51v2.79H454.76V206.57Zm-17,.06,3.36,10.61h0l3.4-10.61H448l-5,15.08h-3.74l-4.9-15.08h3.42Zm-13.92,0h3.32v15.08h-3.32V206.63Zm-20.66,0H416v2.79l-4.75,0v12.3h-3.32v-12.3l-4.8,0v-2.79Zm-20.78,4.5a7.87,7.87,0,0,1,1.64-2.44,7.64,7.64,0,0,1,2.43-1.65,7.67,7.67,0,0,1,5-.32,7.61,7.61,0,0,1,1.85.8,7.5,7.5,0,0,1,1.54,1.24,7.85,7.85,0,0,1,1.17,1.58l-0.78.41-0.57.3-0.61.31-0.87.42a4.24,4.24,0,0,0-1.56-1.57,4.31,4.31,0,0,0-2.24-.6,4.26,4.26,0,0,0-1.74.36,4.76,4.76,0,0,0-1.43,1,4.35,4.35,0,0,0-1,1.43,4.51,4.51,0,0,0,0,3.48,4.5,4.5,0,0,0,2.39,2.39,4.37,4.37,0,0,0,1.74.35,4.32,4.32,0,0,0,2.31-.64,4.46,4.46,0,0,0,1.62-1.7l0.86,0.44,0.6,0.32,0.57,0.3,0.8,0.38a7.91,7.91,0,0,1-1.18,1.66,7.6,7.6,0,0,1-1.56,1.29,7.49,7.49,0,0,1-1.89.83,7.62,7.62,0,0,1-2.12.3,7.43,7.43,0,0,1-3-.6,7.66,7.66,0,0,1-4.07-4.07,7.62,7.62,0,0,1,0-5.94m-19.76-4.58h11v2.79h-7.8v3.4h6.89v2.94h-6.89v3.21h8.51v2.79H362.61V206.57Zm-18.36,0h3.25v12.25h7.73v2.79h-11v-15Zm-18.42,0h3.25v12.25h7.73v2.79h-11v-15Zm-22.48,4.49a7.81,7.81,0,0,1,4.14-4.15,7.83,7.83,0,0,1,6.07,0,7.87,7.87,0,0,1,2.48,1.67,8,8,0,0,1,1.68,2.48,7.76,7.76,0,0,1,0,6.1,8,8,0,0,1-1.68,2.47,7.85,7.85,0,0,1-2.48,1.67,7.83,7.83,0,0,1-6.07,0,7.84,7.84,0,0,1-4.14-4.14,7.89,7.89,0,0,1,0-6.1m-21.29.09a7.87,7.87,0,0,1,1.64-2.44,7.65,7.65,0,0,1,2.43-1.65,7.66,7.66,0,0,1,5-.32,7.6,7.6,0,0,1,1.85.8,7.48,7.48,0,0,1,1.54,1.24,7.87,7.87,0,0,1,1.17,1.58l-0.78.41-0.57.3-0.61.31-0.87.42a4.25,4.25,0,0,0-1.56-1.57,4.44,4.44,0,0,0-4-.24,4.76,4.76,0,0,0-1.43,1,4.35,4.35,0,0,0-1,1.43,4.5,4.5,0,0,0,0,3.48,4.5,4.5,0,0,0,2.39,2.39,4.37,4.37,0,0,0,1.74.35,4.32,4.32,0,0,0,2.31-.64,4.46,4.46,0,0,0,1.62-1.7l0.86,0.44,0.6,0.32,0.57,0.3,0.8,0.38a7.91,7.91,0,0,1-1.18,1.66,7.62,7.62,0,0,1-1.56,1.29,7.51,7.51,0,0,1-1.89.83,7.62,7.62,0,0,1-2.12.3,7.42,7.42,0,0,1-3-.6,7.66,7.66,0,0,1-4.07-4.07,7.62,7.62,0,0,1,0-5.94m-32.76-4.5h12.87v2.79l-4.75,0v12.3H254.1v-12.3l-4.8,0v-2.79Zm-19.8,0h6.78a6.37,6.37,0,0,1,2.42.41,4.61,4.61,0,0,1,1.64,1.09,4.1,4.1,0,0,1,.92,1.55,5.73,5.73,0,0,1,.29,1.78,5.57,5.57,0,0,1-.21,1.51,4.71,4.71,0,0,1-.64,1.38,4.22,4.22,0,0,1-1.11,1.1,4.62,4.62,0,0,1-1.63.68h0.13l3.91,5.6h-3.74l-3.8-5.43h-1.63v5.43h-3.32V206.63Zm-17.53,0h3.34l6.74,15.06h-3.11l-1.58-3.34h-7.63l-1.58,3.34h-3Z" transform="translate(-8.26 -7.22)"/><polygon class="c" points="205.45 202.26 205.43 202.26 202.89 208.09 207.9 208.09 205.45 202.26"/><path class="c" d="M236.52,213.67a2.35,2.35,0,0,0,.92-0.34,1.82,1.82,0,0,0,.62-0.7,2.5,2.5,0,0,0,.23-1.16,2.56,2.56,0,0,0-.23-1.18,1.74,1.74,0,0,0-.62-0.69,2.36,2.36,0,0,0-.92-0.32,8.19,8.19,0,0,0-1.12-.07h-2.58v4.54h2.58a7.13,7.13,0,0,0,1.12-.08" transform="translate(-8.26 -7.22)"/><path class="a" d="M209.73,218.38h7.63l1.58,3.34h3.11l-6.74-15.06H212l-6.85,15.06h3Zm4-8.89h0l2.45,5.83h-5Z" transform="translate(-8.26 -7.22)"/><path class="a" d="M232.83,216.31h1.63l3.8,5.43H242l-3.91-5.6H238a4.61,4.61,0,0,0,1.63-.68,4.22,4.22,0,0,0,1.11-1.1,4.7,4.7,0,0,0,.64-1.38,5.56,5.56,0,0,0,.21-1.51,5.74,5.74,0,0,0-.29-1.78,4.11,4.11,0,0,0-.92-1.55,4.61,4.61,0,0,0-1.64-1.09,6.37,6.37,0,0,0-2.42-.41h-6.78v15.11h3.32v-5.43Zm0-7.1h2.58a8.11,8.11,0,0,1,1.12.07,2.34,2.34,0,0,1,.92.32,1.74,1.74,0,0,1,.62.69,2.56,2.56,0,0,1,.23,1.18,2.5,2.5,0,0,1-.23,1.16,1.81,1.81,0,0,1-.62.7,2.35,2.35,0,0,1-.92.34,7.07,7.07,0,0,1-1.12.08h-2.58v-4.54Z" transform="translate(-8.26 -7.22)"/><polygon class="a" points="245.84 214.49 249.16 214.49 249.16 202.2 253.91 202.22 253.91 199.43 241.05 199.43 241.05 202.22 245.84 202.2 245.84 214.49"/><path class="a" d="M283.7,219.52a7.74,7.74,0,0,0,2.43,1.64,7.43,7.43,0,0,0,3,.6,7.61,7.61,0,0,0,2.12-.3,7.49,7.49,0,0,0,1.89-.83,7.6,7.6,0,0,0,1.56-1.29,7.89,7.89,0,0,0,1.18-1.66l-0.8-.38-0.57-.3-0.6-.32-0.86-.44a4.45,4.45,0,0,1-1.62,1.7,4.32,4.32,0,0,1-2.31.64,4.37,4.37,0,0,1-1.74-.35,4.5,4.5,0,0,1-2.39-2.39,4.47,4.47,0,0,1,1-4.9,4.76,4.76,0,0,1,1.43-1,4.26,4.26,0,0,1,1.74-.36,4.31,4.31,0,0,1,2.24.6,4.25,4.25,0,0,1,1.56,1.57l0.87-.42,0.61-.31,0.57-.3,0.78-.41a7.84,7.84,0,0,0-1.17-1.58,7.5,7.5,0,0,0-1.54-1.24,7.63,7.63,0,0,0-1.85-.8,7.66,7.66,0,0,0-5,.32,7.64,7.64,0,0,0-2.43,1.65,7.86,7.86,0,0,0-1.64,2.44,7.62,7.62,0,0,0,0,5.94,7.73,7.73,0,0,0,1.64,2.43" transform="translate(-8.26 -7.22)"/><path class="a" d="M305,219.63a7.88,7.88,0,0,0,2.47,1.67,7.83,7.83,0,0,0,6.07,0,7.85,7.85,0,0,0,2.48-1.67,8,8,0,0,0,1.68-2.47,7.47,7.47,0,0,0,.62-3,7.55,7.55,0,0,0-.62-3.05,8,8,0,0,0-1.68-2.48,7.86,7.86,0,0,0-2.48-1.67,7.83,7.83,0,0,0-6.07,0,7.81,7.81,0,0,0-4.14,4.15,7.65,7.65,0,0,0-.61,3.05,7.57,7.57,0,0,0,.61,3,7.89,7.89,0,0,0,1.67,2.47m1.28-7.3a4.92,4.92,0,0,1,1-1.47,4.7,4.7,0,0,1,1.46-1,4.36,4.36,0,0,1,1.79-.37,4.3,4.3,0,0,1,1.77.37,4.74,4.74,0,0,1,2.43,2.47,4.62,4.62,0,0,1,0,3.57,4.62,4.62,0,0,1-1,1.46,4.81,4.81,0,0,1-1.45,1,4.29,4.29,0,0,1-1.77.37,4.36,4.36,0,0,1-1.79-.37,4.74,4.74,0,0,1-2.45-2.45,4.49,4.49,0,0,1,0-3.57" transform="translate(-8.26 -7.22)"/><polygon class="a" points="328.55 211.6 320.82 211.6 320.82 199.35 317.57 199.35 317.57 214.39 328.55 214.39 328.55 211.6"/><polygon class="a" points="346.98 211.6 339.24 211.6 339.24 199.35 335.99 199.35 335.99 214.39 346.98 214.39 346.98 211.6"/><polygon class="a" points="366.07 211.68 357.56 211.68 357.56 208.47 364.45 208.47 364.45 205.53 357.56 205.53 357.56 202.13 365.36 202.13 365.36 199.34 354.35 199.34 354.35 214.47 366.07 214.47 366.07 211.68"/><path class="a" d="M384,219.52a7.73,7.73,0,0,0,2.43,1.64,7.43,7.43,0,0,0,3,.6,7.62,7.62,0,0,0,2.12-.3,7.49,7.49,0,0,0,1.89-.83,7.6,7.6,0,0,0,1.56-1.29,7.9,7.9,0,0,0,1.18-1.66l-0.8-.38-0.57-.3-0.6-.32-0.86-.44a4.45,4.45,0,0,1-1.62,1.7,4.32,4.32,0,0,1-2.31.64,4.37,4.37,0,0,1-1.74-.35,4.5,4.5,0,0,1-2.39-2.39,4.47,4.47,0,0,1,1-4.9,4.77,4.77,0,0,1,1.43-1,4.26,4.26,0,0,1,1.74-.36,4.31,4.31,0,0,1,2.24.6,4.25,4.25,0,0,1,1.56,1.57l0.87-.42,0.61-.31,0.57-.3,0.78-.41a7.83,7.83,0,0,0-1.17-1.58,7.51,7.51,0,0,0-1.54-1.24,7.63,7.63,0,0,0-1.85-.8,7.66,7.66,0,0,0-5,.32,7.63,7.63,0,0,0-2.43,1.65,7.87,7.87,0,0,0-1.64,2.44,7.62,7.62,0,0,0,0,5.94,7.74,7.74,0,0,0,1.64,2.43" transform="translate(-8.26 -7.22)"/><polygon class="a" points="399.69 214.49 403 214.49 403 202.2 407.76 202.22 407.76 199.43 394.89 199.43 394.89 202.22 399.69 202.2 399.69 214.49"/><rect class="a" x="415.55" y="199.41" width="3.32" height="15.08"/><polygon class="a" points="434.69 214.49 439.7 199.41 436.28 199.41 432.88 210.01 432.83 210.01 429.48 199.41 426.05 199.41 430.95 214.49 434.69 214.49"/><polygon class="a" points="458.23 211.68 449.71 211.68 449.71 208.47 456.6 208.47 456.6 205.53 449.71 205.53 449.71 202.13 457.51 202.13 457.51 199.34 446.5 199.34 446.5 214.47 458.23 214.47 458.23 211.68"/><polygon class="c" points="168.85 223.15 190.61 223.15 190.61 201.39 168.85 201.39 179.73 212.27 168.85 223.15"/><polygon class="c" points="486.22 223.15 464.46 223.15 464.46 201.39 486.22 201.39 475.34 212.27 486.22 223.15"/><path class="c" d="M179.1,95.57s-7.18,3.05-8.08,5.29a16.71,16.71,0,0,0-.72,5.74s-1.79.45-1.88,1.62a1,1,0,0,0,.36,1.17l-1.53,1.17-0.45-.18a46,46,0,0,0-11.66-7.9c-2.67-1.23-6.35-2.88-9.85-4.44a0.25,0.25,0,0,0-.18,0c0.09-.07.24-0.17,0.46-0.35,0.45-.37-2.14-0.47-2.66-0.7l-8-3.56A122.44,122.44,0,0,0,127.21,80a6,6,0,0,0,1.64-.77,7.84,7.84,0,0,1-2.66-.76l-0.55-.8a3.25,3.25,0,0,0,.79-0.5,4.48,4.48,0,0,1-1.5-.5l-0.41-.57a67.76,67.76,0,0,0-6.08-7.32s0.36-4.58-.09-5.92c0,0,3.77-4.58,3.77-7.27s-0.36-2.42,1.26-4,1.88-6.1,1.88-6.1l0.18-4.13s1.35-.63.54-4.4c0,0-1.35-6.55-8-17,0,0-4.85-9.45-9.42-2.29-2.35,3.68-8.29,10.48-13.35,16.07A12.67,12.67,0,0,1,90.9,35a4.11,4.11,0,0,0,1.88,1.33l-1.06,1.15c-2,.39-4.05.75-4.05,0.75a8.82,8.82,0,0,0,2.2,1.25c-1.82,2-3,3.19-3,3.19s-1.44,2.38-6.19,2.15c-6.32-.3-14.67,9.42-15.34,11.58S60.75,66,59.94,66.5s0,3,0,3-5.79,6.86-7.67,7,0.67,1.48.67,1.48H51.58v1.48l-5.36,6.06s2.15,1.48-3.1,4.31c0,0,3,0-.81,4.58a22,22,0,0,0-4.58,8.21s-2.83,4.44-4.17,5,0,2.29,0,2.29,0.4,0.67-4.85,4.44h1.35l-7.27,7.4-1.4.91A2.83,2.83,0,0,0,20.1,125v0.75l-3.36,2.56s-0.81.4-2-1.21-3.36-.72-5,1.26-1.48,6.42-1.48,9.38,5,5.38,10.09,5.25,11,1.35,16.55-5,5.79-2.69,5.79-2.69l2.42-4.58,2-.27s-0.81-.94,1.21-2.69a21.11,21.11,0,0,0,3.23-3.5s0.27-3,3.63-6.33,3.5-6.6,3.5-6.6l3.5-3.77s3.36-1.88-.13,2.69a24.56,24.56,0,0,0-3,5.36c-0.58.37-2.26,1.72-3.36,5.57a10.36,10.36,0,0,1,2.19-2.31,38.89,38.89,0,0,0-1.1,4.51,11,11,0,0,0-1.36,3.42s0.43-.68,1.06-1.47a35,35,0,0,0,.55,12.38,19.42,19.42,0,0,0,6.33,8.75c2.56,2.08,6,11.57,8.69,20.29a7.1,7.1,0,0,0-.32,3.58,12.85,12.85,0,0,1,1-1.4l0.55,1.85a3.72,3.72,0,0,0-.79,1.83,5.47,5.47,0,0,1,1.16-.57c1.73,5.91,2.9,10.5,2.9,10.5s2.42,1.21-2,6.73-10.5,19.11-10.5,28c0,0,2.42,6.86,19.52,7,0,0,3-7.4,3.5-8.48s1.08,0.94,1.08.94l0.61-3.16,4-8.88,1.82-.61-0.27-1.82h1.08l-0.27-3.63,2.49-7.34s2.09-15.48.61-25.44c0,0-.81-4.44,3.1-0.07a38.45,38.45,0,0,0,8.68,7.07s-0.32,12.51,2.62,22.1a6.72,6.72,0,0,0-1,2.69,12.11,12.11,0,0,1,1.53-1.12c0.23,0.65.49,1.29,0.76,1.9,0,0,.07.31,0.19,0.81a3.77,3.77,0,0,0-1.34,1.76,4.08,4.08,0,0,1,1.65-.31,51.25,51.25,0,0,1,.85,5.48c0.27,3.23,4.17,8.61,4.44,15.75s20.26-9.76,20.26-9.76L137.5,192.6a8.15,8.15,0,0,0,1.78-.65,7.25,7.25,0,0,1-1.84-1.76l0-2.07,2.05,1.32a24.34,24.34,0,0,1-2.21-4.61h0c-0.31-2-1.28-7.59-2.65-9.23-1.68-2-1-5.72-1-5.72s0-5-14.49-28.61a3,3,0,0,1,2,.07l-3.92-3.2h0c-2.49-4-5.35-8.42-8.64-13.4,0,0-.88-5.56,1.06-14.25a8,8,0,0,0,2.17-.45,7.14,7.14,0,0,1-1.58-1.94q0.24-.89.52-1.82l1.54,1.29a17,17,0,0,1-1.07-2.79,66.32,66.32,0,0,1,2.74-7s4.49,4.76,5.92,4.85c0,0,1.53,5.83,3.86,7.45s1.61,0.36,1.61.36,8.52,4.4,9.69,4.76a38.41,38.41,0,0,1,4.94,2.87s3.05-.72,3.77.09S152.1,122,152.1,122a11,11,0,0,0,4,.45c1.7-.27,1.26,1.53,1.26,1.53a2,2,0,0,0-1.08,1.88l-14.54,21.71s-0.45,1.44,1.17,1.17l17-21.62h2l0.45,0.9s0.54,0.63,2.87-.18c0,0,1.44-1.44,1-2,0,0,3.5-.45,3.32-2.15,0,0,1.35-.77.54-3.66a3.62,3.62,0,0,0,1.61-3.25,3.72,3.72,0,0,0-2.24-3s-1.08-1.17,1.35-3.23a1.16,1.16,0,0,0,1.26-.35,3.09,3.09,0,0,0,.73-2s4.65-.09,5.82-3.32,0.45-9.42.45-9.42" transform="translate(-8.26 -7.22)"/><path class="d" d="M120.7,39.29s-0.63-2.18-1.44,0-0.9,7.47-.9,7.47,1.17,2.78,3.05,0c0,0,1.17-.41-0.72-7.47" transform="translate(-8.26 -7.22)"/><path class="d" d="M118.73,43.43a2.48,2.48,0,0,1-1.88,1.27c-1.17,0,0,2.51,0,2.51a1.19,1.19,0,0,1,1.09-1.08c1-.09.78-2.71,0.78-2.71" transform="translate(-8.26 -7.22)"/><path class="d" d="M113.43,53.31s4.13-3.5,7.27-2,2.06-2.78-.36-2.42-4.67-.9-6.91,1.62,0,2.78,0,2.78" transform="translate(-8.26 -7.22)"/><path class="d" d="M114.19,53.76L118,54.48s3.86-.18,2.51-1.7-6.33,1-6.33,1" transform="translate(-8.26 -7.22)"/><path class="d" d="M159.34,119.68s1.35,2.14,1.82,2.14,0.07,1.68-2.36.67-2.36-1-1.41-2.09a1.87,1.87,0,0,1,2-.73" transform="translate(-8.26 -7.22)"/><path class="d" d="M159.88,118.66s0.87-1.08.4-1.75a1.37,1.37,0,0,0-2.09,0c-0.74.61,0.87,2.56,1.68,1.75" transform="translate(-8.26 -7.22)"/><path class="d" d="M164.12,111.25c0.72,0,4.17,3.23,1.62,2.83s-1.14-.81-2.49-0.74,0.16-2.09.87-2.09" transform="translate(-8.26 -7.22)"/><path class="d" d="M178.56,96.47s-0.32.69-.85,1.69c-0.26.5-.58,1.08-0.94,1.7-0.18.31-.36,0.63-0.55,0.94l-0.58,1-0.59,1c-0.19.32-.4,0.62-0.59,0.92-0.38.59-.75,1.14-1.08,1.61-0.64.93-1.11,1.53-1.11,1.53s0.32-.69.85-1.69c0.26-.5.58-1.08,0.94-1.7,0.18-.31.35-0.63,0.55-0.94l0.58-1,0.59-1c0.19-.32.4-0.62,0.59-0.92,0.38-.59.75-1.14,1.08-1.61,0.64-.93,1.11-1.53,1.11-1.53" transform="translate(-8.26 -7.22)"/><path class="d" d="M171.75,106.79a12.84,12.84,0,0,1,.49-1.74c0.17-.51.4-1.1,0.68-1.72,0.14-.31.29-0.63,0.45-0.94s0.33-.64.52-1,0.37-.62.57-0.92,0.39-.59.6-0.86,0.4-.54.61-0.77,0.39-.47.58-0.66l0.52-.53,0.43-.37,0.38-.31-0.31.39-0.36.44-0.44.59c-0.17.21-.32,0.45-0.5,0.7s-0.35.52-.54,0.8-0.36.57-.55,0.87-0.36.6-.54,0.91-0.35.62-.52,0.92l-0.48.91c-0.15.3-.3,0.58-0.44,0.86l-0.38.78L172,106.34l-0.21.45" transform="translate(-8.26 -7.22)"/><path class="d" d="M171.39,106.16a4.42,4.42,0,0,1,0-.45c0-.14,0-0.32,0-0.52s0-.43.1-0.67,0.1-.51.18-0.79,0.16-.56.26-0.86l0.17-.44,0.09-.23,0.11-.22,0.22-.45c0.07-.15.16-0.29,0.24-0.44s0.17-.29.26-0.43l0.28-.41a7.63,7.63,0,0,1,.6-0.75,6.52,6.52,0,0,1,.63-0.64c0.11-.1.2-0.2,0.31-0.28l0.31-.24c0.2-.15.38-0.29,0.55-0.4l0.45-.26,0.4-.22-0.33.31-0.39.34c-0.15.13-.3,0.3-0.47,0.47l-0.27.27-0.27.3c-0.18.21-.38,0.42-0.55,0.67s-0.37.48-.54,0.75l-0.26.4c-0.09.13-.16,0.28-0.24,0.41s-0.17.27-.24,0.41l-0.22.42c-0.15.28-.27,0.57-0.4,0.84s-0.23.55-.32,0.81-0.19.51-.26,0.74c-0.15.46-.26,0.86-0.33,1.13s-0.11.44-.11,0.44" transform="translate(-8.26 -7.22)"/><path class="d" d="M173.18,99.61s-0.19.22-.43,0.56c-0.12.17-.26,0.37-0.4,0.6s-0.14.23-.2,0.35-0.13.24-.2,0.37-0.24.5-.35,0.74l-0.14.35c0,0.11-.08.22-0.12,0.32s-0.07.19-.1,0.27l-0.07.21-0.06.19s0-.07,0-0.2a4.25,4.25,0,0,1,.07-0.51,3.18,3.18,0,0,1,.08-0.34c0-.12.06-0.25,0.11-0.37s0.09-.26.15-0.39,0.11-.26.18-0.39a5.59,5.59,0,0,1,.44-0.72c0.08-.11.16-0.21,0.24-0.31l0.24-.26a4.21,4.21,0,0,1,.39-0.35l0.16-.11" transform="translate(-8.26 -7.22)"/><path class="d" d="M178.83,97.82s-0.24.67-.67,1.63c-0.21.48-.48,1-0.78,1.62-0.15.29-.3,0.6-0.47,0.9l-0.51.92-0.54.9c-0.18.3-.37,0.58-0.55,0.86a17.1,17.1,0,0,1-1.07,1.46,5.82,5.82,0,0,1-.91.92,1.39,1.39,0,0,1-.31.19l-0.12,0,0.11-.06a1.64,1.64,0,0,0,.25-0.24,8.64,8.64,0,0,0,.73-1l0.44-.72,0.48-.81,1-1.78,1-1.77c0.33-.57.64-1.09,0.92-1.54,0.55-.9.94-1.48,0.94-1.48" transform="translate(-8.26 -7.22)"/><path class="d" d="M179,99s0,0.14-.15.39-0.23.6-.42,1-0.4.91-.65,1.42-0.54,1.05-.84,1.59c-0.16.26-.31,0.53-0.47,0.78s-0.32.51-.48,0.74-0.32.46-.49,0.67-0.32.4-.48,0.57a3.93,3.93,0,0,1-.44.45,3.27,3.27,0,0,1-.37.31l-0.35.23,0.32-.27a3.15,3.15,0,0,0,.33-0.34,6.12,6.12,0,0,0,.4-0.47c0.15-.17.29-0.38,0.43-0.59s0.29-.45.45-0.68,0.3-.49.46-0.74,0.3-.52.46-0.78c0.3-.53.59-1.06,0.86-1.56s0.52-1,.73-1.38L179,99" transform="translate(-8.26 -7.22)"/><path class="d" d="M178.56,101.32s0,0.1-.08.27-0.13.42-.24,0.7-0.24.62-.4,1-0.34.72-.54,1.08a10.79,10.79,0,0,1-.64,1,5,5,0,0,1-.34.44,3.72,3.72,0,0,1-.34.37l-0.16.16-0.16.13a1.75,1.75,0,0,1-.26.19l-0.25.14,0.21-.18a1.66,1.66,0,0,0,.23-0.22,3.36,3.36,0,0,0,.27-0.31c0.09-.12.2-0.25,0.29-0.39s0.2-.29.3-0.45,0.2-.33.31-0.5,0.2-.35.3-0.52c0.2-.35.39-0.71,0.56-1l0.47-.93,0.46-.91" transform="translate(-8.26 -7.22)"/><path class="d" d="M178.56,103.29s0,0.06,0,.17-0.08.26-.15,0.45-0.16.39-.26,0.61-0.23.45-.36,0.68-0.27.44-.42,0.64a5.63,5.63,0,0,1-.43.52,3.46,3.46,0,0,1-.49.43l0.1-.15c0.07-.09.15-0.23,0.26-0.38l0.17-.26,0.18-.29c0.12-.21.26-0.42,0.38-0.65l0.71-1.22,0.34-.55" transform="translate(-8.26 -7.22)"/><path class="d" d="M161,115.85s3.46-.67,2-1.41-2.43.1-2,1.41" transform="translate(-8.26 -7.22)"/><path class="d" d="M115.67,39.29a1.68,1.68,0,0,1-3.23,0,1.68,1.68,0,0,1,3.23,0" transform="translate(-8.26 -7.22)"/><path class="d" d="M125,40.51a1.17,1.17,0,1,1-1.17-1.22A1.2,1.2,0,0,1,125,40.51" transform="translate(-8.26 -7.22)"/><path class="d" d="M86.32,45.32s-10.5,0-11.71,3.57,1.21,5,1.21,5-1.48,4-2.83,1.1,0.74-6.42-3.1-3.19-2.08,6.06-2.08,6.06,1.14,1.48-1.15,3.23,2.83,0.13,3.77,0,1.48-1.08,3.9-.81,3.9,0.27,3.9.27,4-1.48.4-2.69-2.45-1.35-2.45-1.35,6.08-3.77,8.1-2.62,1.08,2.22,1.08,2.22l2.42-2.22,0.81,2,2.15-2-1.21,3.57L91.44,56v2.15a1.42,1.42,0,0,0,0,2.42C93.05,61.79,97,61.93,97,61.93l2.83,1.21-1.53-1.88s-0.89-2.69.72-1.48,1.61,0,1.61,0l-1.48-2.69s-0.54-1.48-2.56-.13-2-.81-2-0.81l-0.74,1.62a14,14,0,0,0-1-1.88c-0.4-.54-0.54-4-0.54-4s-2.56-.94-3,0.4S89,49.68,89,49.68s-0.4-1.88-1.62.27Z" transform="translate(-8.26 -7.22)"/><path class="d" d="M77.44,183.87s4.46-4,4.25,0a63,63,0,0,0,0,7s3,3.77-2.52,8.34l-1.59-4.58v5.65l-2.29-2.15V203s-2.15-8.08-4.58,0-5.16,6.19-5.16,6.19a27,27,0,0,1,1.84-6.37c1.78-4,3.07-8.27,6.66-12.29a15.45,15.45,0,0,0,3.39-6.64" transform="translate(-8.26 -7.22)"/><path class="d" d="M96.19,67.13s-3.59,2.51-4,5.2-1.26.72-1.26,0.72a4.21,4.21,0,0,1,0-3.14l0.54,0.53s-0.36-1.61.18-2.05a3.39,3.39,0,0,0,.72-1.71s1.11,0.9,1.45,0a12.2,12.2,0,0,0,.52-2.15,1.66,1.66,0,0,1,1,1.26,1.86,1.86,0,0,0,.9,1.35" transform="translate(-8.26 -7.22)"/><path class="d" d="M86.32,76.1a3.59,3.59,0,0,0,1.35-1.79,0.72,0.72,0,0,0,.9.54c0.72-.18,0-1.7,0-1.7a3.46,3.46,0,0,1,.81-1.61C90,70.9,87.76,71.4,87,73.75S85.7,76.1,85.7,76.1h0.63Z" transform="translate(-8.26 -7.22)"/><path class="d" d="M82.65,86.6l3.05-2.87a1.9,1.9,0,0,1-.36,2.06c-0.9.9,1.53-.72,1.61-1.26a7.67,7.67,0,0,0-.81-2.33s-1.7-2.33-3.5,4.4" transform="translate(-8.26 -7.22)"/><path class="d" d="M77.89,67.76a2.79,2.79,0,0,0-1,1.88c0,1.08-1.62.72-1.62,0.72a1.94,1.94,0,0,1,1.3-2.6c2-.54,1.3,0,1.3,0" transform="translate(-8.26 -7.22)"/><path class="d" d="M78.7,117s-1.08,1-.72,1.83,0.72,0,.72,0,1-1.56,0-1.83" transform="translate(-8.26 -7.22)"/><path class="d" d="M80.34,115.81s-1.29,1.38-.48,1.2,0.48-1.2.48-1.2" transform="translate(-8.26 -7.22)"/><path class="d" d="M77.91,106.34s2.12,0.63,1.23,1-1.21.09-1.23-1" transform="translate(-8.26 -7.22)"/><path class="d" d="M86.23,79.42a4.37,4.37,0,0,1,2-2.06,0.91,0.91,0,0,1,0,1c-0.36.58,0.85,0,1.28-1s0-2.24-1.28-1.26a8,8,0,0,0-2,3.32" transform="translate(-8.26 -7.22)"/><path class="d" d="M101,63.63a2.39,2.39,0,0,1,.63,2.06,19.29,19.29,0,0,0,.72,4.72A2.46,2.46,0,0,1,100.59,69c-0.27-1.12,0-2.56-.81-3.54S101,63.63,101,63.63" transform="translate(-8.26 -7.22)"/><path class="d" d="M110.72,36a3.15,3.15,0,0,1,2.15-.58,0.65,0.65,0,0,1,1.21.17c0.47,1.11,3.48.82,3.48,0.82s1.21-1.12-1.71-2.38-5.12,2-5.12,2" transform="translate(-8.26 -7.22)"/><path class="d" d="M124.46,35.63s-2.87.54-1.17,1.79S125,37.7,125,37.7s1.08-.72-0.54-2.06" transform="translate(-8.26 -7.22)"/><path class="d" d="M127.38,103.09c-0.27-1.81,1.42-1.42,2.5-1.6a40.71,40.71,0,0,1-5.88-1.07,6.36,6.36,0,0,1-2.34-1.68s0.66,1.2,0,.86a22.31,22.31,0,0,1-4.25-3c-0.42-.65-2.48-0.67-2-0.1a0.58,0.58,0,0,1,0,.94c3,2,6.73,3.85,6.41,4.79s0.93,5.29,2.77,5.89,3.73-1,3.73-1a1.59,1.59,0,0,1-1.79-.09s-0.48-1.2,1-1.25,2-2.27,2-2.27-1.86,1.39-2.14-.42" transform="translate(-8.26 -7.22)"/><path class="d" d="M118.37,70.42s4,3.41,4.27,5.31a4.45,4.45,0,0,0,1.28,2.71s-2.14-.72-2.15-1.79-2.25-4-3.78-3.95,0.37-2.28.37-2.28" transform="translate(-8.26 -7.22)"/><path class="d" d="M152.45,103.56s-4.13-.54-5.47,0a2.57,2.57,0,0,1,2.42-1.66c2.06-.22,4.95,1.84,3.05,1.66" transform="translate(-8.26 -7.22)"/><path class="d" d="M114.93,56.66l0.63,0.64s-0.09.55,0.7,0.25,2.27-.6,2.15-0.25-0.21,1.44.4,0.69,0.87-1.69-.62-1.73-4.17,0-3.28.4" transform="translate(-8.26 -7.22)"/><path class="d" d="M96.82,161.88l3.32,2.69s-0.45-1,0-1.21,1.79,3.19,1.79,3.19v-1.7s0.48-.88,1.7,2.24,2.15,0.36,2.15.36-0.63-3.18,1.53-2.22,0.9-1.19.9-1.19a13.16,13.16,0,0,0-3.95-3.59,12,12,0,0,1-3.59-2.87s-1.08-1.79.36-1.08-1.26-3.05-1.26-3.05-3.14-1.26-3-3.68-1.26-1.26-1.26-1.26a42,42,0,0,0,1.26,13.37" transform="translate(-8.26 -7.22)"/><path class="c" d="M113.43,53.31a10.17,10.17,0,0,1,.15-1.57c0.06,0.18.3,1.22,0.3,1.22" transform="translate(-8.26 -7.22)"/><path class="c" d="M118.36,51.1a1.49,1.49,0,0,0,.39-1.16A1.49,1.49,0,0,1,119,51.1" transform="translate(-8.26 -7.22)"/><path class="d" d="M128.14,110.71s8.61,4,9.87,3.95,2.6-1.82,0-2a91.52,91.52,0,0,1-9.87-2" transform="translate(-8.26 -7.22)"/><path class="d" d="M127,84.9a1.92,1.92,0,0,0,.54,1.7c0.72,0.45,1.53.45,1.26-.85S127,84.9,127,84.9" transform="translate(-8.26 -7.22)"/><path class="d" d="M13.37,129.78a1.91,1.91,0,0,0,.54,1.7c0.72,0.45,1.53.45,1.26-.85s-1.79-.85-1.79-0.85" transform="translate(-8.26 -7.22)"/><path class="d" d="M91.8,76.1s-2.25,5.38-2.15,7.18c0,0-.72-3.05,0-4.85S92,75.58,91.8,76.1" transform="translate(-8.26 -7.22)"/><path class="d" d="M112.17,174.18s-1.35-2.06,0-1.88,0.63-1.53.63-1.53,1.53,0.09,1.62.72-0.63,2.69,0,3.05,0.9,4.67.9,4.67,0.45,2.42-.72,2.42-1.35-.09-1.88,1.71-1.26,2.06-1.88,1a12.16,12.16,0,0,1-1-2.24s1.08,1,1.53,0,1.62-2.33.63-3.05-2.15,1.7-2.15,1.7-0.89-1.7-.71-5.47S109,172,109,172s-1.78-1.7.09-1.26,1.52,2.78,3,3.41" transform="translate(-8.26 -7.22)"/><path class="d" d="M113.69,184.58s-1.7,1.26-1.62,2.24a0.77,0.77,0,0,1-.88.9,4,4,0,0,0,0,3.5c1,1.53,2,3.41,2.49,3.23s-1.67-2.33-1.46-4.31-0.24-2.6,1.46-5.56" transform="translate(-8.26 -7.22)"/><path class="d" d="M115.93,194.47a7.21,7.21,0,0,0,.63-1.9,6.41,6.41,0,0,0-.31-2.06Z" transform="translate(-8.26 -7.22)"/><path class="d" d="M115.49,185.57s-0.36-.54.45-1.35-1.08.36-1.08,0.36" transform="translate(-8.26 -7.22)"/><path class="d" d="M108.58,126.26s-0.36,1.79.62,2.42,2.51,3.86,2.51,3.86,0.7,2.87-.95,0a21.69,21.69,0,0,0-3.22-4.4Z" transform="translate(-8.26 -7.22)"/><path class="d" d="M112.7,135.05s-0.18,1.35.45,1.26,0-1.26,0-1.26H112.7Z" transform="translate(-8.26 -7.22)"/><path class="d" d="M12.44,127.76s-0.18,1.35.45,1.26,0-1.26,0-1.26H12.44Z" transform="translate(-8.26 -7.22)"/><path class="d" d="M98.25,150s4.13,3.23,5.48,5.92-2.33-1.26-2.33-1.26-1-2.42-3.15-2.33c0,0-.72-1.79,0-2.33" transform="translate(-8.26 -7.22)"/><path class="d" d="M21.27,128.77s-0.63,1.44-1.08,0-2.06,0-2.06,0-2.69,1.7,0,2.15,2.06,1,2.06,1,2.33,0.9,3-2.38-1.88-.76-1.88-0.76" transform="translate(-8.26 -7.22)"/><path class="d" d="M113.86,42.59s0.65-.43.48,0.29S113,43.6,113,43.6a2.09,2.09,0,0,1-1.07-.57c-0.17-.35.69-0.84,0.69-0.84a0.35,0.35,0,0,1,.2.39c-0.06.29,1,0,1,0" transform="translate(-8.26 -7.22)"/><path class="d" d="M123.29,43.16s-1.57-.15-0.65,1.32a1,1,0,0,0,1.82,0s1-2.1-.41-1.05-0.76-.27-0.76-0.27" transform="translate(-8.26 -7.22)"/><path class="d" d="M97.09,71.71s1.44,5.47.72,6.73a8.53,8.53,0,0,1-2.06,2.24s2-1.17,1.35-9" transform="translate(-8.26 -7.22)"/><path class="d" d="M9.91,132.22s0.87-2,1.51-1.38,0.2,2.32.2,2.32a1.1,1.1,0,0,1-1.28.27,1.44,1.44,0,0,1-.44-1.21" transform="translate(-8.26 -7.22)"/><path class="d" d="M16.07,132.9s-1-2.24.87-1.35-0.87,1.35-.87,1.35" transform="translate(-8.26 -7.22)"/><path class="d" d="M125.54,177.82l3.28,4.25s1.85,2.42,0-3.32-3.28-.93-3.28-0.93" transform="translate(-8.26 -7.22)"/><path class="d" d="M130.4,167s2.86,2.19,1.78,5.24-1.78,2.15-1.78,2.15,1.63-4.38,0-7.4" transform="translate(-8.26 -7.22)"/><path class="d" d="M75.16,144.12s1.65,4.49,1.42,7.72c0,0,3.12-2.87-1.42-7.72" transform="translate(-8.26 -7.22)"/><path class="d" d="M103.28,69s3.77,3.39,3.23,4.72,1.58-1.18,1.58-1.18S106,69,103.28,69" transform="translate(-8.26 -7.22)"/><path class="d" d="M72.73,63.14A8,8,0,0,0,69.1,66s-2.47-1.48-2.47-8.48c0,0-4,5.34-4.67,10.36C61.16,73.75,54,77,54,77l1.82,0.54L51.06,82h1.88l-5.38,3.81s2.56-.85,1.08,1c0,0-7.39,11.72-9.29,16.69a10.69,10.69,0,0,1-1,1.79c-1.29,1.26-3,2.86-3.6,2.93s0.09,0.45.9,0.78c-3.93,5-9.81,11.63-12.33,14.42a1.06,1.06,0,0,1-.95-0.14c-0.71-.68-0.73,2.07-0.07,1.54,0.46,0.1,1.72.16,3.7-1.41L27,126.26s0.13-2.29,2-1.35,4.44-.94,4.44-0.94l6.86-9.86s3.77-1.61-3,8.7c0,0-3.77,3.72,2.29-1s8.48-14.58,8.48-14.58,0.27-.9-3.23-0.45c-4.43.57-1.48-.63-1.48-0.63l1.35-2.87s-1.35-3.14,1.08-2.87,4.17-1.17,2.42.9,2,3.14,2.69-1.7a8,8,0,0,1,5-6.33,7.47,7.47,0,0,1,2.15-3.63c1.75-1.62-1.88-2-1.88-2s0.13-1.26,2.83-1.84,1.75-5.56,1.75-5.56,0.27-1.35,2.15-.81,3.19-1.35,3.19-1.35a4.45,4.45,0,0,0,2.6-3c0.81-2.42-2.6.27-2.6,0.27s-4.22,1.62,0-3.9,1,0.81,1,.81a4.59,4.59,0,0,0,3.77-2.15c1.21-2.15,4.71-3.9,4.71-3.9l0.67-1.61s-1.48-2-3.5-1.48" transform="translate(-8.26 -7.22)"/><path class="d" d="M77.35,91.45a10.7,10.7,0,0,0,2.15-5.92s-5.38,5.38-7.72,6.64-3.59,5-3.59,5-5.57,7.63-6.28,8.7,2.15,0.27,0,4-8.54,14.79-5.56,24.41,6.46,10.41,6.46,10.41,2.2,1.1,5.47,10.07v0.33l0.08-.1q0.48,1.32,1,2.87v3.16a0.88,0.88,0,0,1,.86-0.37c0.56,1.88,1.15,4,1.75,6.31l0.35,1.32v0.55a1,1,0,0,1,.09-0.21c1.52,5.61,1.93,5.17,1.81,2.17,0.17,0.38.28,0.66,0.28,0.66a21.87,21.87,0,0,0-.56-4.44c-0.13-1.32-.28-2.77-0.45-4.25,0.52,0.5.86,0.88,0.86,0.88A10.66,10.66,0,0,0,73,159.2c-0.08-.66-0.16-1.31-0.25-1.94,0.29,0.29.46,0.49,0.46,0.49a10.8,10.8,0,0,0-.88-3.63c-0.35-2.57-.6-4.35-0.6-4.35s1.79-2.15-.54-7-10-5.38-10-5.38-5-1.08-.72-13.1,4.13,5,4.13,5a16.13,16.13,0,0,0,4.31-7c3.6-12.55,3.59-4.85,3.59-4.85L73.76,109s0.9-6.1,2.15-3.14a12.83,12.83,0,0,0,2.87-6.55l0.72-7.18s3.59-4.67-2.15-.72" transform="translate(-8.26 -7.22)"/><path class="c" d="M73.67,94.59s-7.63,9.15-7.58,12.65,3.78,4,1.74,8,5.13-4,3-7.72,2.87-12.89,2.87-12.89" transform="translate(-8.26 -7.22)"/><path class="d" d="M112.67,16.79c-2-.26-12.69,15.39-14.77,16.55a6.89,6.89,0,0,0-1.14.91,0.65,0.65,0,0,0-.4.18,3.57,3.57,0,0,1-2.7.68l1.05,1.25c-0.39.43-.78,0.87-1.17,1.33l-0.18.11a3.57,3.57,0,0,1-2.7.68l1.11,1.32A31.22,31.22,0,0,0,89,43.53c0,0.42-1,1.76,6.1,1a7.1,7.1,0,0,0,1.81-1.08c1.66-1.39,1.12-.19.57,0.78,7.71-1.17,7.15-3.43,7.15-3.43l1.81-1.9s-0.78.5-1.81-.54,5.57-5.62,5.57-5.62,2.59-2.69-1.55-2.56S111.46,28,111.46,28s-2.33-4.58,1-5a3.71,3.71,0,0,1,4.35,3.09c-0.08.54,0.29,1.66,0.32,1.35a5.67,5.67,0,0,0-.31-2.78c-0.48-.72.68-0.94,0.68-0.94s0.68-.87,2.23,2.6c1.19,2.66,1.3,1.93,1.3,1.93s-5.08-11-8.4-11.49" transform="translate(-8.26 -7.22)"/><path class="c" d="M91.79,45.28l-1.22,0a10,10,0,0,0,1.22,0" transform="translate(-8.26 -7.22)"/><path class="c" d="M105.21,32s3.85-.95,1.69.75-4.4,1.86-5,4.11-1.33-1.81,3.29-4.86" transform="translate(-8.26 -7.22)"/></svg>