<svg id="Layer_1" data-name="Layer 1" xmlns="http://www.w3.org/2000/svg" viewBox="0 0 633.01 280.02"><defs><style>.cls-1{fill:#1b2a37;}.cls-2{fill:#f9a332;}</style></defs><title>Artboard 1</title><polygon class="cls-1" points="101.18 148.18 101.18 148.18 101.18 148.18 101.18 148.18"/><polygon class="cls-1" points="119.32 37.9 107.62 31.99 99.41 47.97 111.11 53.87 119.32 37.9"/><path class="cls-1" d="M573.09,88.67l.1-.17,18.33-35.71,28.87-.33V39.29l-22.06.26,9.29-18.07-11.69-5.89L583.52,39.72l-28.41.33V53.21l21.6-.26-15,29.23C555.84,92,551,99,547,103a21.44,21.44,0,0,1-5.56,4.12,1.51,1.51,0,0,1-.33.13h0a12.38,12.38,0,0,1-4.83,1,11.15,11.15,0,0,1-2.51-.26l-.19-.07v-.29A19.7,19.7,0,0,1,535.2,101c1.78-4.48,4.61-9.91,7.14-15,1.29-2.63,2.47-5.13,3.39-7.6a22.59,22.59,0,0,0,1.71-7.83,11.41,11.41,0,0,0-.59-3.76,9.2,9.2,0,0,0-1.64-2.89A9.88,9.88,0,0,0,541,61a13.19,13.19,0,0,0-4.41-.63c-6.32.07-12.08,2.51-17.28,5.9l22.18-43.13-11.72-5.92L495.5,83.79c-6,10-11.62,16.76-16.46,20.74s-8.76,5.37-12,5.4a.14.14,0,0,1-.1,0l0,0h-.1c3.56-7.31,5.73-11.85,5.79-12l11.76-23.64,6.68-13.46L479.3,55.09l-3.49,7a16.53,16.53,0,0,0-2.43-1.65,20.62,20.62,0,0,0-9.71-2.21,31.63,31.63,0,0,0-14.29,4,42.54,42.54,0,0,0-13.13,11.35c-2.21,2.8-14.06,22.35-19,27.85a38.11,38.11,0,0,1-7.21,6.42,10.22,10.22,0,0,1-5.1,2,6.22,6.22,0,0,1-2.07-.33l-.53-.43a4.23,4.23,0,0,1-.82-1.68,12.93,12.93,0,0,1-.43-3.59,33.93,33.93,0,0,1,2.86-12.54,6.18,6.18,0,0,0,.43-.66l.13-.2,13-25.24-11.68-5.93L393,84.12c-6,10-12,16.92-17.54,21.1s-10.37,5.8-14.19,5.86a12.54,12.54,0,0,1-7-1.91,16,16,0,0,1-3.79-3.29,70.16,70.16,0,0,0,22.19-12.47,52.48,52.48,0,0,0,9.81-10.7c2.5-3.85,4.34-8,4.38-12.74a15.16,15.16,0,0,0-2.31-8.1A17.46,17.46,0,0,0,378,56a14.65,14.65,0,0,0-7.18-1.71c-4.71.1-9,1.88-13.07,4.38a55.78,55.78,0,0,0-16.26,16c-4.44,6.62-7.7,14.32-7.73,22.45A25,25,0,0,0,337.2,110a30.18,30.18,0,0,0,10.07,10.44,26.13,26.13,0,0,0,14,3.78c7.34-.1,14.91-3.06,22.15-8.59,1.81-1.42,3.62-3,5.4-4.71a16.76,16.76,0,0,0,5.07,8.4,15,15,0,0,0,5.07,2.79,17.94,17.94,0,0,0,6,.89A23.55,23.55,0,0,0,417.06,119a51.65,51.65,0,0,0,9-7.87,19,19,0,0,0,2.5,5.07,15.07,15.07,0,0,0,12.57,6.16,22.17,22.17,0,0,0,5.57-.82c-3.33,6.81-7,14.45-10.87,22.35L321.2,145.19c-5.07.06-10.14.06-15.21.09-2.07,0-4.11.1-6.19.17,12.05-24.85,22-45.3,22.16-45.72L337.3,68.85l-12.61-6.16-.49,1.12a196,196,0,0,1-11.29,23.67,81.46,81.46,0,0,1-10.08,14.32,23.28,23.28,0,0,1-4.64,3.92,5.73,5.73,0,0,1-2.8,1l-.75-.1a2.68,2.68,0,0,1-1.06-.53,2.3,2.3,0,0,1-.72-1.08,8.9,8.9,0,0,1-.4-3,32.61,32.61,0,0,1,1.78-9.48c.63-2,1.42-4.11,2.24-6.12a.92.92,0,0,0,.16-.39c1.39-3.33,2.87-6.46,4.22-9.12,1.12-2.17,2.14-4,2.86-5.27.36-.62.66-1.12.86-1.45l.2-.36.06-.1L293.65,63a133,133,0,0,0-7,13.3c-.69,1.48-1.34,3.06-2,4.64a145.79,145.79,0,0,1-12.94,20.84,42.67,42.67,0,0,1-7.31,7.57,12.44,12.44,0,0,1-2.89,1.78,4.27,4.27,0,0,1-1.75.46,6.22,6.22,0,0,1-2.07-.33l-.53-.43a4.23,4.23,0,0,1-.82-1.68,12.93,12.93,0,0,1-.43-3.59,34.33,34.33,0,0,1,2.86-12.64c.14-.19.23-.36.37-.56l.09-.16,18.34-35.68,27.12-.33V43l-20.31.23,9.32-18-11.72-5.92L269.52,43.44l-30.15.33V56.93l23.34-.26-15,29.2c-5.86,9.84-10.67,16.79-14.75,20.8a22.34,22.34,0,0,1-5.56,4.12,12.62,12.62,0,0,1-5.2,1.18,9.68,9.68,0,0,1-2.54-.29l-.16-.07v-.3a19.39,19.39,0,0,1,1.71-6.61c1.74-4.51,4.61-9.94,7.14-15.08a80.16,80.16,0,0,0,3.39-7.6,22.5,22.5,0,0,0,1.71-7.84,11.23,11.23,0,0,0-.59-3.72,10.28,10.28,0,0,0-1.68-2.93A9.79,9.79,0,0,0,227,64.67a13,13,0,0,0-4.41-.66c-6.32.1-12.08,2.54-17.28,5.93l22.18-43.13-11.72-5.92L181.5,87.48c-6,10-11.62,16.76-16.46,20.77s-8.79,5.34-11.95,5.37c-.1,0-.16,0-.26,0,3.52-7.28,5.73-11.82,5.79-12l17.61-35.49-11.78-5.76-2.67,5.4a15.76,15.76,0,0,0-2.4-1.58A20.29,20.29,0,0,0,149.67,62a31.68,31.68,0,0,0-14.29,4c-15.73,8.52-20.8,26.53-32.16,39.17A37.69,37.69,0,0,1,96,111.61a10.63,10.63,0,0,1-5.1,2,5.88,5.88,0,0,1-2.07-.37l-.53-.42a3.9,3.9,0,0,1-.82-1.65,12.93,12.93,0,0,1-.43-3.59c0-8.52,4.38-15.73,8.29-23,.56-1,8-15.67,8-15.67L91.7,63,78.93,87.84c-6,10-12.08,16.89-17.58,21.07S51,114.74,47.16,114.77a12.72,12.72,0,0,1-7-1.88,15.42,15.42,0,0,1-3.78-3.35A69.3,69.3,0,0,0,58.55,97.09a51.26,51.26,0,0,0,9.81-10.66c2.5-3.85,4.35-8,4.38-12.77a15,15,0,0,0-2.3-8.07A17.54,17.54,0,0,0,64,59.7,15,15,0,0,0,56.77,58c-4.7.07-9,1.88-13.06,4.35a56.06,56.06,0,0,0-16.27,16c-4.44,6.65-7.7,14.32-7.73,22.45a25.16,25.16,0,0,0,3.42,12.9,29.66,29.66,0,0,0,10.08,10.4,25.5,25.5,0,0,0,13.95,3.79c7.34-.07,14.91-3,22.16-8.59a64.82,64.82,0,0,0,5.46-4.78,16.38,16.38,0,0,0,5.07,8.5,15.55,15.55,0,0,0,5.07,2.79,19,19,0,0,0,6,.89,23.78,23.78,0,0,0,12.18-4.11,51.12,51.12,0,0,0,9-7.84,18.82,18.82,0,0,0,2.5,5,15,15,0,0,0,5.43,4.58,16.21,16.21,0,0,0,7.18,1.61,23.25,23.25,0,0,0,5.46-.82c-3.42,7.07-7.24,14.94-11.23,23.14a84.57,84.57,0,0,0-18.4,4,53.17,53.17,0,0,0-17.21,10,55.27,55.27,0,0,0-13.07,17.91,49.27,49.27,0,0,0-5.17,21,35.44,35.44,0,0,0,3.06,14.55,38.62,38.62,0,0,0,16.46,17.64l5.93,3,3-6c5.76-11.58,20.31-41.54,33.94-69.62,4.11-.26,8.33-.36,12.74-.43,4.9-.06,10-.06,15.2-.09l92.93-1.12c-.56.42-1.12.85-1.61,1.28a54.41,54.41,0,0,0-13.07,17.91c-3.62,7.67-5.2,14.68-5.17,21a35.25,35.25,0,0,0,3,14.54,38,38,0,0,0,10.14,13.34,36.61,36.61,0,0,0,6.32,4.31l5.92,3,3-6c5.76-11.59,20.31-41.51,34-69.62,1.77-.1,3.55-.2,5.4-.26,5.39-.07,8.59-.1,8.59-.17,4.54-.06,9.18,0,13.92-.1l80.29-.95c-.53.43-1.09.85-1.62,1.28a54.35,54.35,0,0,0-13.06,17.91c-3.62,7.67-5.17,14.68-5.17,21a35.3,35.3,0,0,0,3.06,14.55,37.71,37.71,0,0,0,16.46,17.64l5.89,3,3-6c5.72-11.58,20.31-41.51,33.93-69.62,4.09-.23,8.33-.36,12.71-.43,4.94,0,10,0,15.24-.09,32.95-.4,126.37-1.49,126.37-1.49V141.93s-93.42,1.08-126.37,1.48c-5.1.06-10.17.06-15.24.1-2.07,0-4.11.1-6.16.16,2.34-4.8,4.58-9.45,6.65-13.82l2.47-5.07c.4-.83.79-1.65,1.19-2.44h0a60.64,60.64,0,0,0,9.51.73c10.24-.14,21.73-10.74,27.62-17.88C505.51,96,509,85.34,518.44,78c2.83-2.1,7.18-4.7,11.13-4.7a2.56,2.56,0,0,1,2.34,3.59c-2.47,5.36-5.2,10.63-7.61,16-3.12,7.11-6.65,17.44-.75,23.89a12.47,12.47,0,0,0,5.72,3.59,20,20,0,0,0,6.16,1,6.11,6.11,0,0,0,.76,0A25.51,25.51,0,0,0,546.88,119,36.09,36.09,0,0,0,558,110.29a15.81,15.81,0,0,0,4.64,7,15.1,15.1,0,0,0,5.07,2.83,19.31,19.31,0,0,0,6,.89,18.11,18.11,0,0,0,6.82-1.55,32.36,32.36,0,0,0,9.61-6.78,87.48,87.48,0,0,0,11.62-14.81c3.45-5.37,6.52-10.87,8.92-15.57L599,76.42a141.19,141.19,0,0,1-13.33,21.63,44,44,0,0,1-7.31,7.6,13.17,13.17,0,0,1-2.89,1.78,5.55,5.55,0,0,1-1.75.46,5.72,5.72,0,0,1-2.07-.36l-.53-.43a3.77,3.77,0,0,1-.82-1.65,13.24,13.24,0,0,1-.43-3.58,34.1,34.1,0,0,1,2.86-12.64C572.86,89,573,88.86,573.09,88.67ZM358.39,74.28c8.41-8.41,13.85-7.31,15.26-5.66,1.8,2.1-1.32,15.26-26.21,24.39A44.64,44.64,0,0,1,358.39,74.28ZM33.12,96.71A44.64,44.64,0,0,1,44.07,78c8.41-8.41,13.85-7.31,15.26-5.66C61.13,74.42,58,87.58,33.12,96.71Zm54.6,120.83a19.2,19.2,0,0,1-1.35-1.45,23,23,0,0,1-3.92-6.22,22.66,22.66,0,0,1-1.71-8.76c0-4.11,1-9.15,3.92-15.34a41.42,41.42,0,0,1,9.84-13.59c5.43-4.81,12-7.67,19.91-9.38C104.18,183.83,93.94,204.83,87.72,217.54Zm44.83-106.36a11.28,11.28,0,0,1-5.36,1.68,2.65,2.65,0,0,1-1.22-.26,2.68,2.68,0,0,1-1.19-1.42,10.92,10.92,0,0,1-.85-4.64,27.86,27.86,0,0,1,2-9.68,45.79,45.79,0,0,1,6.62-11.52,29.81,29.81,0,0,1,9-7.8,18.19,18.19,0,0,1,8.1-2.4,6.14,6.14,0,0,1,4,1.08,2.72,2.72,0,0,1,.66.89,4.78,4.78,0,0,1,.33,1.88,8.73,8.73,0,0,1-.17,1.48l-3.81,7.74c-3.69,6.48-7.74,13.06-11.95,17.67A27.78,27.78,0,0,1,132.55,111.18ZM251.09,215.6c-.46-.43-.92-.93-1.35-1.42a22.8,22.8,0,0,1-4-6.25,22.52,22.52,0,0,1-1.68-8.73c0-4.11,1-9.18,3.88-15.37a41,41,0,0,1,9.84-13.56c5.47-4.81,12.05-7.7,19.92-9.38C267.55,181.89,257.31,202.92,251.09,215.6Zm34.07-70-127.3,1.52c-5.06,0-10.17,0-15.2.1-2.08,0-4.15.06-6.19.13,3.72-7.67,7.24-14.91,10.33-21.3a57.49,57.49,0,0,0,9.58.69c10.24-.13,21.73-10.73,27.62-17.87,7.51-9.15,10.93-19.85,20.44-27.13,2.8-2.1,7.18-4.74,11.1-4.7a2.55,2.55,0,0,1,2.37,3.58c-2.47,5.37-5.21,10.64-7.61,16-3.13,7.11-6.65,17.41-.76,23.89a12.81,12.81,0,0,0,5.73,3.59,23.19,23.19,0,0,0,6.92,1,26.14,26.14,0,0,0,10.69-2.47A36.55,36.55,0,0,0,244,114a16,16,0,0,0,4.64,7,14.54,14.54,0,0,0,5.07,2.8,17.44,17.44,0,0,0,6,.88,18.47,18.47,0,0,0,6.82-1.51,33.21,33.21,0,0,0,9.61-6.81,63.13,63.13,0,0,0,4.93-5.53c.2.42.37.88.6,1.31a15.08,15.08,0,0,0,3.65,4.28,16.52,16.52,0,0,0,5.2,2.7,15.39,15.39,0,0,0,4.87.73,14,14,0,0,0,2.34-.23C294,127.38,289.67,136.27,285.16,145.61Zm116.62,68.21a18.3,18.3,0,0,1-1.35-1.42,23,23,0,0,1-3.91-6.25,21.78,21.78,0,0,1-1.71-8.72c0-4.12,1-9.19,3.88-15.38a41.52,41.52,0,0,1,9.84-13.56c5.47-4.8,12.05-7.7,19.92-9.38C418.24,180.11,408,201.15,401.78,213.82ZM452.71,102.2a24.52,24.52,0,0,1-6.16,5.26,11,11,0,0,1-5.4,1.68,2.58,2.58,0,0,1-1.18-.26c-.33-.13-.73-.43-1.19-1.38a11.28,11.28,0,0,1-.85-4.68,27.86,27.86,0,0,1,2-9.68,45.79,45.79,0,0,1,6.62-11.52,29.68,29.68,0,0,1,9-7.77,18.32,18.32,0,0,1,8.1-2.4,5.88,5.88,0,0,1,4,1.09,2.21,2.21,0,0,1,.66.85,4.78,4.78,0,0,1,.33,1.88,11.89,11.89,0,0,1-.17,1.68S462.12,91,452.71,102.2Z"/><polygon class="cls-1" points="433.32 34.19 421.62 28.28 413.41 44.26 425.11 50.17 433.32 34.19"/><path class="cls-2" d="M510.15,174.41c-27.8,0-50.34,18.56-50.34,41.45s22.54,41.44,50.34,41.44,50.33-18.55,50.33-41.44S538,174.41,510.15,174.41Z"/><path class="cls-1" d="M548.75,229.24s-9,17.6-39.16,17.6c-28.57,0-36.5-15-36.5-15l4.08-3.21s7.76,13,32.34,13c27.12,0,34.9-15.29,34.9-15.29Z"/><path class="cls-1" d="M512.3,184.17c-20.94,0-39,10.67-41.76,25.76s6.84,17.28,17.68,13.09c0,0,3.46,4.7,9.26,4.7,4.84,0,9.24-.82,15.54-7.39,0,0,2.51,8.33,13.7,8.33,10.78,0,22.24-10.11,22.24-20.24C549,201,541.4,184.17,512.3,184.17Zm25.91,34.48c-11.49,10-19.25,1.73-19.25,1.73a26.06,26.06,0,0,0,10.32-5.9c3.19-3.15,8-7.87,3.2-13.21s-15.13,1.6-18.85,9.69c-3.3,7.19-11,11.77-14.7,11.77a8.83,8.83,0,0,1-5.77-1.87s20.85-9.83,13.53-19c-7.54-9.42-23.15,8.54-20.38,16.33,0,0-9,3.45-10.59-.18-2-4.53.85-29.89,40.66-28.52C536.23,190.2,553.21,205.6,538.21,218.65Zm-20.5-3.26a19,19,0,0,1,4.69-8c3.59-3.6,5.92-3.13,6.52-2.43C529.7,205.85,528.36,211.48,517.71,215.39Zm-26.28,0a19,19,0,0,1,4.69-8c3.59-3.6,5.92-3.13,6.52-2.43C503.42,205.85,502.08,211.48,491.43,215.39Z"/></svg>