<?xml version="1.0" encoding="UTF-8" standalone="no"?>
<svg width="350px" height="240px" viewBox="0 0 350 240" version="1.1" xmlns="http://www.w3.org/2000/svg" xmlns:xlink="http://www.w3.org/1999/xlink">
    <!-- Generator: Sketch 3.6 (26304) - http://www.bohemiancoding.com/sketch -->
    <title>Home Logo</title>
    <desc>Created with Sketch.</desc>
    <defs>
        <path id="path-1" d="M89.80475,125.036292 L89.80475,0.220430769 L1.34461038,0.220430769 L1.34461038,125.036292 L89.80475,125.036292 L89.80475,125.036292 Z"></path>
        <path id="path-3" d="M145.733266,0.740892308 L0.000453713705,0.740892308 L0.000453713705,151.53915 L145.733266,151.53915 L145.733266,0.740892308 L145.733266,0.740892308 Z"></path>
    </defs>
    <g id="Logo" stroke="none" stroke-width="1" fill="none" fill-rule="evenodd">
        <g id="Home-Logo">
            <g id="Logo" transform="translate(4.000000, 2.000000)">
                <path d="M55.7241781,113.282434 L51.7490531,106.573072 L28.9609906,106.573072 L39.7348656,124.427965 C40.3948344,124.091195 41.0517406,123.74218 41.7040531,123.373265 C46.8015844,120.486234 51.4734281,117.126195 55.7241781,113.282434 L55.7241781,113.282434 Z" id="Fill-1" fill="#FFCA2F"></path>
                <path d="M60.50275,127.090585 C61.1244375,126.214985 61.7323438,125.3302 62.334125,124.440823 L62.272875,124.338262 L57.9930313,117.1115 C57.936375,117.177323 57.88125,117.243146 57.8245938,117.307438 C53.3763125,122.337546 48.2374375,126.237946 42.3865313,128.824946 L49.3353438,140.339392 C49.422625,140.2552 49.5114375,140.172538 49.5971875,140.086815 C53.4574688,136.264485 57.3698125,131.497669 60.50275,127.090585" id="Fill-3" fill="#FFCA2F"></path>
                <path d="M52.0076812,144.768673 L53.0029937,146.417312 L62.8213687,162.690919 L62.8213687,198.47265 L83.0369313,198.47265 L83.0369313,163.205258 L117.156244,106.572919 L94.6239,106.572919 L73.2507125,142.868988 L67.0767125,132.445981 L65.5378062,129.848265 C61.53665,135.215142 57.0684625,140.422819 52.0076812,144.768673" id="Fill-5" fill="#FFCA2F"></path>
                <path d="M142.132156,161.790062 L184.10525,161.790062 L184.10525,143.899962 L142.132156,143.899962 L142.132156,123.176408 L189.64225,123.176408 L189.64225,106.1864 L122.56125,106.1864 L122.56125,198.344831 L194.018563,198.344831 L194.018563,181.354823 L142.132156,181.354823 L142.132156,161.790062 Z" id="Fill-7" fill="#FFCA2F"></path>
                <path d="M202.387456,123.691665 L231.614425,123.56308 L231.614425,198.472803 L251.828456,198.472803 L251.828456,123.56308 L280.796644,123.691665 L280.796644,106.701657 L202.387456,106.701657 L202.387456,123.691665 Z" id="Fill-9" fill="#FFCA2F"></path>
                <path d="M309.425353,136.503438 C310.523259,136.520276 311.578291,136.455984 312.598103,136.321276 L312.598103,106.572307 L292.384072,106.572307 L292.384072,127.369338 C296.190759,132.841838 302.501041,136.396284 309.425353,136.503438" id="Fill-11" fill="#FFCA2F"></path>
                <path d="M292.384684,134.179577 L292.384684,134.632685 L292.384684,198.473415 L312.598716,198.473415 L312.598716,141.133862 C312.476216,141.156823 312.355247,141.185908 312.231216,141.207338 C304.325372,142.604931 297.485278,140.327146 292.384684,134.179577" id="Fill-13" fill="#FFCA2F"></path>
                <path d="M292.384684,127.369032 C290.995841,125.371378 289.937747,123.121147 289.308403,120.685693 C287.916497,115.289732 288.316153,109.919793 289.570247,104.56057 C291.472059,96.4337162 294.770372,88.8625315 299.053278,81.75517 C303.489309,74.39217 308.225466,67.2098008 312.816153,59.9386469 C313.191309,59.3462392 313.855872,58.8793546 313.722653,57.6348392 C312.881997,56.8526162 311.794809,55.8790469 310.750497,54.8626162 C309.487216,53.6349392 308.081528,53.41757 306.511997,54.1599931 C305.633059,54.5763623 304.732684,54.9621162 303.899684,55.4565546 C301.873841,56.6536162 299.875559,57.8981315 297.877278,59.1395854 C295.699841,60.4927854 293.471872,61.7434238 291.159684,62.7047469 C290.694184,62.2103085 290.796778,61.8383315 290.926934,61.43727 C291.302091,60.28307 291.697153,59.1349931 291.991153,57.9608931 C292.289747,56.7760777 292.455122,55.5285008 291.965122,54.3773623 C291.072403,52.2817392 288.257966,50.9147623 285.619622,51.2454085 C286.481716,52.3980777 286.353091,53.5905469 286.011622,54.8825162 C284.745278,59.6554546 282.232497,63.8620085 279.828434,68.0700931 C277.738278,71.7301623 275.496528,75.3121623 273.378809,78.9645777 C271.770997,81.7398623 270.711372,84.68047 269.869184,87.74507 C268.489528,92.7644623 269.595091,97.2082854 272.867372,101.153078 C273.652903,102.097562 274.438434,103.126239 276.037059,103.807432 C274.496622,100.305032 274.185778,96.9893854 274.779903,93.7058854 C275.857903,87.7527238 279.082716,82.8037469 282.580091,77.8853854 C283.506497,79.1023469 284.174122,80.3346162 285.901372,80.6667931 C284.867778,77.45677 285.558372,74.5957623 287.153934,71.9490623 C290.776872,65.9331392 296.404216,62.4307392 302.550653,59.5574854 C302.899778,60.1483623 302.565966,60.3565469 302.408247,60.5968777 C296.413403,69.75547 292.024841,79.6626085 288.931716,90.1284777 C286.206091,99.3528931 284.428309,108.716608 285.754372,118.427808 C286.469466,123.669162 288.201309,128.491085 291.300559,132.783362 C291.651216,133.270147 292.014122,133.73397 292.384684,134.179424 L292.384684,128.671716 L292.384684,127.369032 Z" id="Fill-15" fill="#FEFEFE"></path>
                <g id="Group-19" transform="translate(252.656250, 16.097569)">
                    <mask id="mask-2" fill="white">
                        <use xlink:href="#path-1"></use>
                    </mask>
                    <g id="Clip-18"></g>
                    <path d="M89.3660469,65.5643769 C88.7443594,59.5561077 87.6617656,53.6641769 85.1336719,48.1656538 C81.8690469,41.0598231 76.5647969,35.8444923 69.5470781,32.4002615 C65.5198906,30.4225077 61.1895156,29.3861769 56.8545469,28.3376 C51.0204844,26.9262308 45.1236406,25.9327615 39.1670781,25.2362615 C32.9701094,24.5122077 26.8466406,23.4054615 20.8410781,21.6818154 C13.6932031,19.6321154 8.63089062,15.1209385 5.46120312,8.4774 C4.38167187,6.21339231 3.58235937,3.81620769 2.64217187,1.48637692 C2.44310937,0.995 2.44464062,0.329115385 1.59326562,0.220430769 C1.26098437,2.73089231 1.29467188,5.24747692 1.50139062,7.72885385 C1.76629687,10.9006077 2.65748437,13.93 4.39085937,16.6670154 C7.44570312,21.4935308 11.9307344,24.4173 17.2120156,26.2220769 C25.2602656,28.9744 33.6622344,29.8301 42.0611406,30.6046692 C48.6057031,31.2062615 55.1487344,31.8017308 61.5891719,33.1426846 C65.8827969,34.0366538 70.0937344,35.2459615 73.8468281,37.6462077 C79.0745156,40.9894077 82.3207656,45.8725615 84.3098594,51.6007 C87.7536406,61.5185538 88.4013594,71.7241923 86.9941406,82.0813769 C86.6388906,84.6928692 86.0922344,87.2768077 85.0739531,89.8883 C84.7294219,89.1535308 84.9039844,88.5825538 84.9529844,88.0284154 C85.4491094,82.3599769 84.6344844,76.8369615 82.8153594,71.4976385 C81.4755156,67.5681538 79.2215156,64.2081154 75.2708906,62.3742538 C73.6921719,61.6410154 72.0491406,61.3670077 69.9268281,62.7646 C73.6707344,62.0665692 76.2003594,63.3922154 78.1817969,65.6899 C79.8187031,67.5880538 81.1646719,69.7112308 81.9593906,72.1619923 C84.5916094,80.2796615 84.5717031,88.4539692 82.5841406,96.6742 C80.7634844,104.205585 76.5663281,110.184769 70.7169531,115.193446 C67.4676406,117.974854 63.9871094,119.687785 59.9430781,120.223554 L59.9430781,120.7134 L59.9430781,124.904646 L59.9430781,125.036292 C67.1736406,123.663192 73.1761406,119.726054 77.8066406,113.828 C84.7967969,104.925046 88.0598906,94.6137846 89.2802969,83.5493846 C89.9402656,77.5671385 89.9877344,71.5741769 89.3660469,65.5643769" id="Fill-17" fill="#FEFEFE" mask="url(#mask-2)"></path>
                </g>
                <path d="M312.598563,136.811582 L312.598563,136.321735 C311.57875,136.456443 310.523719,136.520735 309.425813,136.503897 C302.499969,136.396743 296.189688,132.842297 292.384531,127.368266 L292.384531,128.672482 L292.384531,134.180189 C297.485125,140.326228 304.325219,142.604012 312.232594,141.20642 C312.355094,141.184989 312.476063,141.157435 312.598563,141.132943 L312.598563,141.002828 L312.598563,136.811582 Z" id="Fill-20" fill="#FEFEFE"></path>
                <path d="M199.250078,68.3741038 C201.032453,71.3591038 200.343391,74.1711269 199.009672,77.1591885 C196.109484,83.6588346 191.846484,89.2890038 187.954047,95.1595038 C187.013859,96.5769962 185.941984,97.9072346 184.908391,99.2604346 C184.314266,100.038065 183.640516,100.740688 182.400203,101.238188 C180.046672,98.9894885 179.328516,96.2800269 179.865984,93.2383885 C180.473891,89.7910962 181.735641,86.5611731 183.355703,83.4491192 C186.943422,76.5575962 191.397828,70.3212423 197.083359,65.00335 C198.983641,63.2245962 201.044703,61.6463731 203.545234,60.7600577 C205.024422,60.2365346 206.497484,60.0559038 208.250766,60.8947654 C206.693484,63.5154423 205.194391,66.03815 203.649359,68.6404577 C202.128828,68.2087808 200.775203,67.1877577 199.184234,67.90875 C199.204141,68.0648885 199.176578,68.2501115 199.250078,68.3741038 M205.557297,103.613942 C207.938391,102.672519 209.991797,101.259619 211.944141,99.6507808 C217.256047,95.2743115 221.842141,90.2794115 225.062359,84.1410269 C226.797266,80.8376269 227.601172,77.3168577 227.353109,73.5649423 C227.132609,70.2447038 226.155672,68.9481423 222.488328,67.6378038 C224.090016,71.4723808 224.448328,75.1064269 223.316734,78.8047654 C220.860609,86.8413038 216.563922,93.6930269 210.095922,99.1241962 C209.036297,100.013573 207.893984,100.791204 206.629172,101.365242 C204.162328,102.485765 202.830141,101.991327 201.868516,99.5221962 C201.187109,97.7709962 200.842578,95.9509115 201.127391,94.0527577 C201.488766,91.6341423 202.162516,89.3165577 203.171609,87.0801038 C205.151516,82.6883269 207.811297,78.7159808 210.566016,74.7926192 C218.075266,64.0940731 224.815828,52.90415 231.579359,41.7295346 C232.387859,40.3931731 232.828859,38.9266962 233.194828,37.4158269 C233.871641,34.6099269 232.923797,32.3198962 231.104672,30.2594808 C230.340578,29.3945962 229.414172,28.7470808 228.392828,28.2266192 C227.324016,27.6831962 226.997859,26.2549885 225.827984,25.9212808 C225.488047,26.1447731 225.439047,26.3805115 225.529391,26.61625 C226.305734,28.6552346 225.915266,30.6146192 225.089922,32.5204269 C224.509578,33.8583192 223.941484,35.2191731 223.195766,36.4652192 C220.399703,41.1294731 217.611297,45.79985 214.660578,50.3676654 C213.091047,52.7985269 211.507734,55.2554115 209.529359,57.4505346 C206.514328,55.7575038 203.430391,55.2401038 200.075422,55.7222962 C194.948797,56.4601269 190.724078,58.87415 187.076641,62.3643038 C181.031266,68.1490808 177.468047,75.3467577 175.518766,83.3955423 C174.635234,87.0448962 174.094703,90.7355808 175.074703,94.4630038 C175.973547,97.8903962 177.219984,101.123381 180.389672,103.166958 C181.983703,104.194104 183.397047,104.128281 184.865516,102.934281 C185.366234,102.525565 185.798047,102.029596 186.254359,101.567304 C189.254078,98.5379115 191.344234,94.8472269 193.705422,91.3524808 C194.203078,90.61465 194.570578,89.7604808 195.544453,89.0195885 C195.544453,90.3911577 195.484734,91.4473885 195.555172,92.4959654 C195.858359,97.0484731 197.620828,100.795796 201.628109,103.269519 C202.882203,104.044088 204.131703,104.177265 205.557297,103.613942" id="Fill-22" fill="#FEFEFE"></path>
                <path d="M178.800081,44.8403638 C178.801613,54.9832408 168.5208,70.9200792 160.841581,72.9529408 C167.147269,63.5876946 172.7348,54.1948946 178.800081,44.8403638 M149.782894,73.8162946 C147.130769,78.8540562 144.93955,84.0785715 144.481706,89.8541638 C144.126456,94.3377869 145.08655,98.4111638 148.360363,101.697725 C149.931425,103.274418 151.703081,103.722933 153.886644,102.793756 C157.990394,101.048679 161.52605,98.5167869 164.680425,95.4231023 C169.865238,90.3378869 172.711831,83.9101869 175.005644,77.1870485 C175.585988,75.4848331 175.679394,73.6907715 175.592113,71.8936485 C175.474206,69.4826869 174.059331,68.1340792 171.445488,67.9718177 C172.286144,70.4088023 172.25705,72.8672177 171.872706,75.3960485 C171.353613,78.8066023 170.038269,81.9431485 168.747425,85.0796946 C166.03405,91.6681254 161.702144,96.8819254 155.298456,100.220533 C152.526894,101.664048 150.716956,100.774672 150.266769,97.7085408 C149.922238,95.3572792 150.030956,93.0259177 150.729206,90.7236408 C152.477894,84.9618254 155.861956,80.09551 159.163331,75.1786792 C159.564519,74.5801485 160.189269,74.3979869 160.783394,74.1729638 C163.715738,73.0662177 166.239238,71.3226715 168.525394,69.2163331 C174.944394,63.3029715 179.314581,56.0899869 181.86105,47.7825023 C182.906894,44.3658254 183.528581,40.8573023 182.93905,37.2400946 C182.444456,34.1984562 181.369519,31.4629715 179.035894,29.3397946 C177.76955,28.1886562 176.298019,27.7523869 174.442144,27.9835331 C174.826488,30.1694715 173.976644,31.99721 173.201831,33.8494408 C171.949269,36.8466869 170.410363,39.7000408 168.850019,42.54421 C164.553331,50.3756254 159.638019,57.8228177 154.73955,65.2807254 C153.859081,66.6216792 153.0368,67.9993715 152.186956,69.3602254 C151.396831,64.4418638 153.572738,60.71291 157.486613,57.3253177 C155.416363,57.6100408 154.081113,58.1902023 152.85305,58.96171 C149.245425,61.23031 147.8183,65.8838485 149.825769,69.6066792 C150.680206,71.1894946 150.582206,72.2993023 149.782894,73.8162946" id="Fill-24" fill="#FEFEFE"></path>
                <path d="M253.655544,60.92783 C254.134825,60.6400454 254.669231,60.4165531 255.205169,60.2527608 C256.278575,59.9251762 257.486731,59.3740992 258.348825,60.4839069 C259.129762,61.4896223 259.638137,62.6530069 259.253794,64.0659069 C258.359544,67.33563 256.278575,69.7863915 253.828575,71.9386531 C251.5072,73.9791685 248.835169,75.4961608 245.95795,76.6549531 C244.103606,77.4019685 242.223231,77.5902531 239.966169,77.2488915 C243.169544,70.3879838 247.313106,64.7363838 253.655544,60.92783 M230.9762,68.3444069 C231.155356,70.0542762 231.553481,71.6876069 232.169044,73.2673608 C232.478356,74.0633608 232.516637,74.7445531 232.231825,75.5803531 C230.417294,80.92733 230.250387,86.4090146 231.20895,91.9259069 C231.786231,95.2384915 233.113825,98.2923762 235.099856,101.00643 C236.015544,102.257068 237.203794,103.429638 238.920325,103.198492 C240.096325,103.039292 241.3152,102.834168 242.419231,102.255538 C244.645669,101.089092 246.973169,100.098684 249.123044,98.8067146 C253.0262,96.4600454 256.785419,93.8317146 259.978075,90.5956685 C264.230356,86.2850223 266.88095,81.0084608 268.090637,75.0445838 C268.317262,73.92253 268.430575,72.7866992 268.305012,71.6508685 C268.040106,69.2674608 267.044794,68.33063 264.314575,67.9265069 C265.830512,73.7082223 263.947075,78.8531377 261.247481,83.7408838 C259.036356,87.7469069 256.038169,91.1697069 252.500981,94.1087838 C249.343544,96.7325223 245.892106,98.8143685 241.949137,100.020615 C239.58795,100.743138 238.638575,100.334422 237.719825,98.1270531 C237.412044,97.3907531 237.200731,96.5748531 237.142544,95.7803838 C236.830169,91.55393 237.029231,87.3534992 238.067419,83.2265454 C238.33845,82.1473531 238.513012,81.0023377 239.252606,80.11143 C242.468231,80.6977146 244.048481,80.56913 246.8767,79.3506377 C252.240669,77.0422377 256.826762,73.5689223 261.07445,69.6363762 C262.196856,68.5954531 263.106419,67.3264454 263.942481,66.0161069 C265.50895,63.5653454 265.522731,61.1589762 263.931762,58.7250531 C262.682262,56.8131223 261.056075,55.2012223 259.705512,53.38573 C258.621387,51.9299685 257.348919,51.7921992 255.859012,52.1182531 C253.556012,52.6218762 251.338762,53.3918531 249.257794,54.5276838 C243.625856,57.5999377 239.292419,62.0085531 235.934387,67.4259454 C235.433669,68.2326608 234.929887,69.0393762 234.119856,70.34053 C234.119856,69.04703 234.159669,68.3367531 234.1122,67.63413 C233.945294,65.1542838 234.922231,63.2102069 236.853137,61.7161762 C237.816294,60.9706915 238.810075,60.2665377 239.7962,59.5531992 C240.240262,59.2317377 240.831325,59.0633531 240.998231,58.1249915 C238.114887,57.3779762 235.563825,57.5876915 233.642106,60.0154915 C231.72345,62.4417608 230.640856,65.14663 230.9762,68.3444069" id="Fill-26" fill="#FEFEFE"></path>
                <g id="Group-30" transform="translate(0.000000, 0.789877)">
                    <mask id="mask-4" fill="white">
                        <use xlink:href="#path-3"></use>
                    </mask>
                    <g id="Clip-29"></g>
                    <path d="M141.204525,62.5821323 C140.89215,64.8201169 140.068338,66.7090862 138.311994,69.0986169 C137.215619,68.7496015 134.851369,66.3462938 133.692213,67.1652554 C133.154744,67.5448862 133.188431,68.3638477 133.433431,68.9746246 C134.173025,70.8176708 135.082588,73.3067015 132.981713,74.6660246 C131.358588,75.7176631 129.717088,76.1355631 127.986775,75.13444 C125.688369,73.8042015 124.7099,71.1590323 125.245838,68.4189554 C126.242681,63.3199631 131.8639,58.3464938 137.2294,57.8030708 C139.852431,57.5367169 141.611838,59.67214 141.204525,62.5821323 M134.355244,82.0152477 C133.532962,85.7503246 132.297244,89.3705938 130.594494,92.7826785 C128.940744,96.0983246 126.599463,98.8889169 123.152619,100.558986 C119.612369,102.274978 117.920338,101.702471 115.482588,98.4235631 C113.35415,95.5594938 113.174994,92.10914 113.762994,88.8287015 C114.886931,82.5647938 117.217494,76.7019477 120.834306,71.4054862 C121.014994,71.1406631 121.165056,70.8375708 121.705588,70.7487862 C123.777369,77.6173477 127.39265,79.5078477 134.385869,77.28364 C134.7304,78.8817631 134.695181,80.4645785 134.355244,82.0152477 M69.223525,96.3156938 C69.0428375,96.8346246 68.6937125,97.12394 68.268025,97.3504938 C63.9789938,99.6221554 59.472525,101.276917 54.5556813,100.866671 C48.5394,100.363048 44.1921813,96.7320631 42.5353688,91.0789323 C42.4480875,90.7819631 42.4802438,90.4482554 42.45115,90.0640323 C45.4692438,88.0388246 48.7507125,87.1264862 52.3506813,87.3851862 C54.7409625,87.5566323 56.0532438,88.5822477 57.3992125,91.5182631 C57.6641188,89.0919938 57.2506813,88.2929323 55.5800875,87.3821246 C53.3123063,86.1452631 50.9067125,86.2738477 48.4628375,86.6044938 C46.3481813,86.8907477 44.490775,87.8934015 42.6425563,88.7093015 C41.9136813,88.2760938 42.0208688,87.6852169 42.08365,87.1280169 C42.4970875,83.4067169 43.9624938,80.3941631 47.2485563,78.2281246 C50.860775,75.8462477 54.523525,73.7659323 58.7727438,72.6806169 C63.6268063,71.4406938 69.4853688,74.1348477 71.0579625,80.6084708 C72.3763688,86.0289246 71.0104938,91.2121092 69.223525,96.3156938 M29.4952438,98.9914785 C30.7661813,95.9712708 32.8440875,93.5450015 34.7367125,90.9396323 C35.5436813,91.4830554 35.6049313,92.3203862 36.0199,93.1102631 C33.8363375,95.0788323 31.665025,97.0351554 29.4952438,98.9914785 M69.1163375,37.0795169 C75.0591188,30.8140785 81.40615,25.0139938 88.73165,20.3681092 C94.4064625,16.7708015 100.487056,14.1914554 107.134213,13.0403169 C109.395869,12.6469092 111.655994,12.5826169 113.887025,13.2561554 C117.137869,14.2373785 118.615525,16.7218169 117.807025,20.0068477 C117.277213,22.16064 116.22065,24.0771631 114.893056,25.8513246 C111.734088,30.0777785 107.702306,33.36434 103.356619,36.2406554 C95.2440563,41.6090631 86.5710563,45.7574477 76.9318375,47.5959015 C72.114525,48.5143631 67.2742438,48.8052092 62.4155875,47.8454169 C61.7770563,47.7183631 61.1584313,47.5836554 60.5979938,47.0984015 C63.2470563,43.59294 66.0982438,40.2619862 69.1163375,37.0795169 M143.859712,58.4061938 C142.818463,56.9703323 141.379087,56.0365631 139.772806,55.47324 C137.913869,54.8226631 135.834431,54.6665246 133.894337,54.8012323 C129.596119,55.0997323 125.339244,56.6580554 121.918431,59.2817938 C118.199025,62.1351477 114.109056,64.2231169 109.865963,66.1840323 C107.438931,67.3030246 104.823556,67.7790938 101.705931,68.2230169 C105.172681,62.8285862 108.820119,58.2010708 113.717056,54.5119169 C112.150588,53.8077631 110.734181,53.6608092 109.0054,53.8047015 C105.206369,54.1246323 101.402744,54.3818015 97.6021813,54.6986708 C92.7527125,55.1027938 87.8894625,55.4028246 83.14565,56.62744 C78.2226813,57.8995092 74.1817125,60.42834 71.5617438,64.8706323 C69.81765,67.8296092 69.9600563,70.8972708 71.5066188,73.9236015 C72.0854312,75.0563708 72.9444625,75.8141015 74.184775,76.2396554 C77.8306813,77.4902938 81.8869625,75.6748015 83.421275,72.0162631 C83.61115,71.5616246 83.9909,71.0687169 83.556025,70.5360092 C82.8103063,70.79624 82.8133688,71.4743708 82.539275,71.9381938 C81.3908375,73.8868631 79.6804312,75.0012631 77.5198375,75.4849862 C75.2398063,75.9947323 73.217025,74.97524 72.433025,72.7877708 C71.722525,70.8008323 71.759275,68.8169554 72.8969938,66.9310477 C74.7329625,63.89094 77.418775,61.88104 80.6236812,60.5094708 C86.08565,58.1719862 91.7114625,58.5684554 97.3633063,59.5848862 C97.4689625,59.6032554 97.5439937,59.7991938 97.680275,59.97064 C96.100025,62.3724169 95.1108375,65.1538246 93.380525,67.4117092 C91.2658688,67.27394 89.8203688,66.1365785 88.4835875,64.9487015 C87.6459938,65.5579477 87.6092438,66.3095554 87.7746188,67.0290169 C88.26615,69.1705631 90.5293375,69.3404785 91.8462125,70.49774 C87.7378687,81.2590477 80.18115,89.0322938 70.730275,95.8763631 C71.2264,94.0011708 71.6520875,92.62654 71.9522125,91.2243554 C72.8587125,86.9672862 73.1971188,82.69644 71.6873063,78.5006015 C70.2617125,74.5359092 67.4855563,72.1019862 63.3205563,71.1590323 C59.411275,70.2742477 55.7408688,71.1666862 52.0995563,72.3729323 C49.2590875,73.3128246 46.6574938,74.7884862 43.584275,76.6698015 C47.2990875,65.84114 53.2158375,56.9412477 59.6134,48.4255785 C61.43865,48.7684708 63.0173688,49.1511631 64.617525,49.3471015 C69.4838375,49.94104 74.32565,49.5920246 79.1735875,48.9582862 C88.3304625,47.7596938 97.067775,45.1681015 105.422275,41.2707631 C109.709775,39.2700477 113.720119,36.8131631 117.162369,33.5296631 C119.770088,31.0406323 122.062369,28.3036169 123.0684,24.7430477 C124.931931,18.1439015 122.950494,13.9541862 116.29415,12.0820554 C111.986744,10.8712169 107.592056,10.9140785 103.240244,11.4697477 C94.1982125,12.6208862 85.8391188,15.8156015 77.9179625,20.2915708 C68.084275,25.8482631 59.1126813,32.4535323 51.7152125,41.0641092 C51.5728062,41.2324938 51.3278063,41.3120938 51.0874,41.4590477 C50.0078688,40.6217169 49.3861813,39.4782323 48.6940563,38.3944477 C47.0280563,35.79214 46.095525,32.9571554 46.4461813,29.8588785 C46.9698688,25.2359554 48.7767438,21.1044092 51.6708063,17.4673015 C57.279775,10.4181092 64.5838375,5.92836308 73.2124313,3.63986308 C78.7402438,2.17338615 84.2818375,1.97438615 89.5233063,4.93336308 C89.9107125,5.15226308 90.4313375,5.31758615 90.7743375,4.67925538 C90.5905875,4.52770923 90.4267437,4.35167077 90.22615,4.23686308 C89.73615,3.95367077 89.2384938,3.67813231 88.7270563,3.43474 C81.7767125,0.122155385 74.5262438,0.102255385 67.3278375,2.08307077 C57.0500875,4.90887077 49.7858375,11.3580015 46.1139,21.4748554 C43.5414,28.5623169 44.6301188,35.1874862 49.2912438,41.1789169 C49.62965,41.6136554 50.138025,41.9580785 50.2084625,42.7556092 C48.9788688,44.4011862 47.6497438,46.1278938 46.3742125,47.8928708 C38.8909938,58.2424015 34.0798063,69.5302938 34.0323375,82.5464246 C34.0277438,83.9960631 33.6847438,85.4732554 32.5454938,86.7453246 C23.0088688,97.3918246 17.222275,109.735948 15.9467438,124.070071 C15.89315,124.68544 16.04015,125.406432 15.23165,125.784532 C13.7784938,125.146202 12.3284,124.437455 10.9303688,123.606248 C2.95561875,118.863925 0.2499,108.773094 2.9234625,100.808502 C3.65080625,98.6409323 4.6874625,96.6922631 5.99974375,94.9686169 C5.5878375,94.7543092 5.23411875,95.8824862 4.996775,95.4844862 C1.9495875,99.0603631 0.0508375,101.774417 0.0018375,106.743294 C-0.0594125,112.814325 1.91130625,118.199571 6.1819625,122.67554 C8.573775,125.179878 11.4739625,126.961694 14.3695563,128.754225 C15.2209313,129.280809 15.6466188,129.831886 15.740025,130.836071 C15.9651188,133.256217 16.3004625,135.674832 17.0415875,137.99854 C18.9449313,143.965478 22.43465,148.681778 28.627025,150.494209 C34.764275,152.291332 40.8663063,151.911702 46.4033063,148.245509 C48.3510563,146.956602 50.2145875,145.519209 52.0076813,143.979255 L49.6265875,140.032932 L49.33565,139.55074 C44.1891188,144.586971 38.3673062,148.556255 30.9698375,148.488902 C29.1308063,148.472063 27.6118063,147.850571 26.348525,146.644325 C21.9079,142.408686 20.4823063,136.962209 20.027525,130.930978 C23.9383375,131.555532 27.696025,131.722386 31.3572438,131.188148 C35.2833688,130.617171 38.9568375,129.550225 42.3868375,128.034763 L42.2260563,127.766878 L39.8572125,123.843517 L39.7347125,123.638394 C36.859025,125.106402 33.8929938,126.262132 30.7079938,126.943325 C27.2504313,127.682686 23.7928688,127.572471 20.10715,127.234171 C19.7258688,124.933425 20.162275,122.921994 20.5741813,120.971794 C21.25865,117.723502 22.1942438,114.525725 23.0685875,111.318763 C24.0225563,107.816363 25.7390875,104.715025 28.1783688,102.026994 C30.6834938,99.2670169 33.208525,96.52694 36.32615,94.3149785 C36.8911813,95.05434 37.459275,95.7401246 37.9661187,96.4687708 C40.8724313,100.633994 45.0527438,102.526025 49.9343688,103.006686 C55.5617125,103.559294 58.5384625,103.097002 65.487275,101.160578 C65.916025,101.728494 65.340275,102.028525 65.1014,102.33774 C62.24715,106.03914 59.1203375,109.420609 55.724025,112.492863 L55.7623063,112.555625 L57.73915,115.894232 L57.9933375,116.321317 C62.1169937,111.627978 65.6786813,106.487655 68.3997125,100.814625 C68.7932438,99.9941323 69.3291813,99.3971323 70.2203688,98.9777015 C72.9398688,97.6964477 75.4817438,96.0952631 77.9118375,94.3149785 C78.5855875,93.8220708 79.1873688,93.0765862 80.4720875,93.1255708 C80.1398063,93.1117938 78.4493062,96.8392169 78.202775,97.2846708 C77.4095875,98.7190015 76.6087438,100.147209 75.8002437,101.572355 C74.1878375,104.410402 72.5448063,107.230078 70.8726812,110.031386 C68.206775,114.498171 65.511775,118.945055 62.608525,123.254171 C62.5197125,123.387348 62.424775,123.518994 62.3344313,123.652171 L65.5378063,129.058848 C66.9067438,127.221925 68.2236187,125.368163 69.4884313,123.523586 C73.780525,117.268863 77.5688375,110.63604 81.3739937,104.076694 C87.1345563,94.2797708 92.8644937,84.46754 98.11515,74.3858938 C99.2069313,72.2918015 100.278806,70.7242938 103.067213,70.5528477 C106.656463,70.3308862 110.147713,69.2333246 113.372525,67.5219246 C113.59915,68.1005554 113.299025,68.3118015 113.139775,68.5659092 C110.163025,73.2975169 108.18465,78.4072246 107.4619,83.9577938 C106.866244,88.5347938 107.209244,93.0122938 109.071244,97.3198785 C111.469181,102.867386 117.214431,105.586032 123.3869,102.806155 C128.42165,100.539086 132.269681,96.9800477 135.584837,92.66634 C137.671931,89.9522862 138.693275,86.8172708 139.751369,83.6577631 C140.614994,81.08454 141.131025,78.4699862 140.735962,75.7681785 C140.552212,74.5190708 140.8799,73.5853015 141.694525,72.6653092 C142.769463,71.4498785 143.749462,70.1548477 144.565619,68.7388862 C146.407713,65.5487631 145.994275,61.3544554 143.859712,58.4061938" id="Fill-28" fill="#FEFEFE" mask="url(#mask-4)"></path>
                </g>
                <path d="M60.50275,127.090585 C57.3698125,131.497669 53.4574688,136.264485 49.5971875,140.086815 C49.5114375,140.172538 49.422625,140.2552 49.3353437,140.339392 L49.6278125,140.823115 L52.007375,144.767908 C57.0681563,140.422054 61.537875,135.214377 65.5375,129.8475 L62.334125,124.440823 C61.7323438,125.3302 61.1244375,126.214985 60.50275,127.090585" id="Fill-31" fill="#FFFFFF"></path>
                <path d="M57.8244406,117.308051 C57.8810969,117.243758 57.9362219,117.176405 57.9928781,117.112112 L57.7386906,116.683497 L55.7618469,113.34642 L55.7235656,113.282128 C51.4743469,117.12742 46.8009719,120.487458 41.7049719,123.372958 C41.0526594,123.741874 40.3942219,124.090889 39.7342531,124.429189 L39.8582844,124.632782 L42.2255969,128.557674 L42.3863781,128.824028 C48.2372844,126.238558 53.3761594,122.338158 57.8244406,117.308051" id="Fill-33" fill="#FEFEFE"></path>
            </g>
            <g id="Bottom-Banner" transform="translate(7.000000, 209.000000)">
                <path d="M26.0409091,0 L310.435536,0 L310.435536,25.6970107 L26.1664123,25.6970107 L26.0409091,0 Z" id="Banner" fill="#FFFFFF"></path>
                <path d="M45.5317636,21.7 L39.0981273,6.4015 L36.0528727,6.4015 L29.6192364,21.7 L32.9861727,21.7 L34.3586818,18.2931 L40.7065364,18.2931 L42.0790455,21.7 L45.5317636,21.7 Z M39.5270364,15.3419 L35.5381818,15.3419 L37.5326091,10.416 L39.5270364,15.3419 Z M67.1028271,21.7 L63.4356544,16.275 C65.3442999,15.5589 66.6524726,14.0182 66.6524726,11.5661 L66.6524726,11.5227 C66.6524726,8.3979 64.5293726,6.51 60.9908726,6.51 L54.1283271,6.51 L54.1283271,21.7 L57.4309271,21.7 L57.4309271,16.8392 L60.0258271,16.8392 L63.2426453,21.7 L67.1028271,21.7 Z M63.3069817,11.7397 C63.3069817,13.02 62.3848271,13.888 60.776418,13.888 L57.4309271,13.888 L57.4309271,9.5263 L60.7120817,9.5263 C62.3204908,9.5263 63.3069817,10.2641 63.3069817,11.6963 L63.3069817,11.7397 Z M87.2799361,9.5914 L87.2799361,6.51 L74.8415724,6.51 L74.8415724,9.5914 L79.4094543,9.5914 L79.4094543,21.7 L82.7120543,21.7 L82.7120543,9.5914 L87.2799361,9.5914 Z M121.993999,19.2479 L119.892345,17.0996 C118.712845,18.1846 117.662018,18.879 115.946381,18.879 C113.372927,18.879 111.592954,16.709 111.592954,14.105 L111.592954,14.0616 C111.592954,11.4576 113.415818,9.331 115.946381,9.331 C117.447563,9.331 118.627063,9.982 119.785118,11.0453 L121.886772,8.5932 C120.492818,7.2044 118.798627,6.2496 115.967827,6.2496 C111.357054,6.2496 108.140236,9.7867 108.140236,14.105 L108.140236,14.1484 C108.140236,18.5101 111.42139,21.9604 115.839154,21.9604 C118.73429,21.9604 120.449927,20.9188 121.993999,19.2479 L121.993999,19.2479 Z M145.773945,14.105 L145.773945,14.0616 C145.773945,9.7433 142.449899,6.2496 137.817681,6.2496 C133.185463,6.2496 129.818527,9.7867 129.818527,14.105 L129.818527,14.1484 C129.818527,18.4667 133.142572,21.9604 137.77479,21.9604 C142.407008,21.9604 145.773945,18.4233 145.773945,14.105 L145.773945,14.105 Z M142.321227,14.1484 C142.321227,16.7524 140.476917,18.879 137.817681,18.879 C135.158445,18.879 133.271245,16.709 133.271245,14.105 L133.271245,14.0616 C133.271245,11.4576 135.115554,9.331 137.77479,9.331 C140.434027,9.331 142.321227,11.501 142.321227,14.105 L142.321227,14.1484 Z M165.77949,21.7 L165.77949,18.662 L158.295026,18.662 L158.295026,6.51 L154.992426,6.51 L154.992426,21.7 L165.77949,21.7 Z M185.334681,21.7 L185.334681,18.662 L177.850217,18.662 L177.850217,6.51 L174.547617,6.51 L174.547617,21.7 L185.334681,21.7 Z M205.533235,21.7 L205.533235,18.7271 L197.383962,18.7271 L197.383962,15.5372 L204.460962,15.5372 L204.460962,12.5643 L197.383962,12.5643 L197.383962,9.4829 L205.426008,9.4829 L205.426008,6.51 L194.102808,6.51 L194.102808,21.7 L205.533235,21.7 Z M227.940671,19.2479 L225.839017,17.0996 C224.659517,18.1846 223.60869,18.879 221.893053,18.879 C219.319599,18.879 217.539626,16.709 217.539626,14.105 L217.539626,14.0616 C217.539626,11.4576 219.36249,9.331 221.893053,9.331 C223.394235,9.331 224.573735,9.982 225.73179,11.0453 L227.833444,8.5932 C226.43949,7.2044 224.745299,6.2496 221.914499,6.2496 C217.303726,6.2496 214.086908,9.7867 214.086908,14.105 L214.086908,14.1484 C214.086908,18.5101 217.368062,21.9604 221.785826,21.9604 C224.680962,21.9604 226.396599,20.9188 227.940671,19.2479 L227.940671,19.2479 Z M248.225008,9.5914 L248.225008,6.51 L235.786644,6.51 L235.786644,9.5914 L240.354526,9.5914 L240.354526,21.7 L243.657126,21.7 L243.657126,9.5914 L248.225008,9.5914 Z M260.488744,21.7 L260.488744,6.51 L257.186144,6.51 L257.186144,21.7 L260.488744,21.7 Z M284.290135,6.51 L280.730189,6.51 L276.805671,17.2081 L272.881153,6.51 L269.235426,6.51 L275.304489,21.8085 L278.221071,21.8085 L284.290135,6.51 Z M304.317125,21.7 L304.317125,18.7271 L296.167853,18.7271 L296.167853,15.5372 L303.244853,15.5372 L303.244853,12.5643 L296.167853,12.5643 L296.167853,9.4829 L304.209898,9.4829 L304.209898,6.51 L292.886698,6.51 L292.886698,21.7 L304.317125,21.7 Z" id="ART-COLLECTIVE" fill="#000000"></path>
                <path d="M23.7551491,30.0145996 L23.7551491,7.92366149 L2.11212902,7.92366149 L12.1786481,18.1096645 L0.54979511,29.8765454 L23.7551491,30.0145996 Z" id="left-end" fill="#FFFFFF"></path>
                <path d="M336.246058,30.0145996 L336.246058,7.92366149 L314.603038,7.92366149 L324.669557,18.1096645 L313.040704,29.8765454 L336.246058,30.0145996 Z" id="right-end" fill="#FFFFFF" transform="translate(324.643381, 18.969131) rotate(-180.000000) translate(-324.643381, -18.969131) "></path>
            </g>
        </g>
    </g>
</svg>