<?xml version="1.0" encoding="utf-8"?>
<!-- Generator: Adobe Illustrator 19.2.1, SVG Export Plug-In . SVG Version: 6.00 Build 0)  -->
<svg version="1.1" id="Layer_1" xmlns="http://www.w3.org/2000/svg" xmlns:xlink="http://www.w3.org/1999/xlink" x="0px" y="0px"
	 viewBox="0 0 226.5 153.5" style="enable-background:new 0 0 226.5 153.5;" xml:space="preserve">
<metadata><?xpacket begin="﻿" id="W5M0MpCehiHzreSzNTczkc9d"?>
<x:xmpmeta xmlns:x="adobe:ns:meta/" x:xmptk="Adobe XMP Core 5.6-c111 79.158366, 2015/09/25-01:12:00        ">
   <rdf:RDF xmlns:rdf="http://www.w3.org/1999/02/22-rdf-syntax-ns#">
      <rdf:Description rdf:about=""/>
   </rdf:RDF>
</x:xmpmeta>
                                                                                                    
                                                                                                    
                                                                                                    
                                                                                                    
                                                                                                    
                                                                                                    
                                                                                                    
                                                                                                    
                                                                                                    
                                                                                                    
                                                                                                    
                                                                                                    
                                                                                                    
                                                                                                    
                                                                                                    
                                                                                                    
                                                                                                    
                                                                                                    
                                                                                                    
                                                                                                    
                           
<?xpacket end="w"?></metadata>
<style type="text/css">
	.st0{fill:none;}
	.st1{fill:#FFC627;}
	.st2{fill:#FFFFFF;}
</style>
<g id="text_layer">
	<g>
		<path class="st0" d="M81.6,65.2c2.3-1.1,3.8-2.9,4.9-5.1c1.1-2.2,1.9-4.6,2.5-7c0.2-1,0.2-2,0-3.1c-4.6,1.5-6.9,0.2-8.3-4.3
			c-0.4,0.1-0.5,0.3-0.6,0.4c-2.4,3.5-3.9,7.3-4.6,11.4c-0.4,2.1-0.3,4.4,1.1,6.3C78.2,66,79.3,66.3,81.6,65.2z"/>
		<path class="st0" d="M134.2,43.8c1-1.7,2-3.3,3-5.1c-1.1-0.5-2.1-0.4-3.1-0.1c-1.6,0.6-3,1.6-4.2,2.8c-3.7,3.5-6.6,7.5-9,12
			c-1.1,2-1.9,4.1-2.3,6.4c-0.4,2,0.1,3.8,1.7,5.2c0.8-0.3,1.3-0.8,1.6-1.3c0.7-0.9,1.4-1.8,2-2.7c2.5-3.8,5.3-7.5,7.2-11.8
			c0.9-2,1.3-3.8,0.2-5.7c0-0.1,0-0.2,0-0.3C132.3,42.9,133.2,43.6,134.2,43.8z"/>
		<path class="st0" d="M84.8,48.6c1.1,0.7,2.2,0.4,3.3-0.3c1.4-0.9,0.8-2.5,0.3-3.7c-0.2-0.4-0.2-0.9,0.2-1.2c0.8-0.5,2.3,1,3,1.3
			c1.1-1.6,1.7-2.8,1.9-4.3c0.3-1.9-0.9-3.3-2.6-3.1c-3.5,0.4-7.2,3.6-7.8,6.9C82.6,46,83.3,47.7,84.8,48.6z"/>
		<path class="st0" d="M47.6,52.2c-1-4.2-4.9-6-8-5.2c-2.8,0.7-5.2,2.1-7.5,3.6c-2.1,1.4-3.1,3.4-3.4,5.8c0,0.4-0.1,0.7,0.4,1
			c1.2-0.5,2.4-1.2,3.8-1.4c1.6-0.2,3.2-0.3,4.6,0.5c1.1,0.6,1.4,1.1,1.2,2.7c-0.9-1.9-1.7-2.6-3.3-2.7c-2.4-0.2-4.5,0.4-6.5,1.8
			c0,0.3,0,0.5,0.1,0.7c1.1,3.7,3.9,6.1,7.9,6.4c3.2,0.3,6.2-0.8,9-2.3c0.3-0.1,0.5-0.3,0.6-0.7C47.6,59.1,48.5,55.7,47.6,52.2z"/>
		<path class="st0" d="M23.9,58.9c-1.2,1.7-2.6,3.3-3.4,5.3c1.4-1.3,2.8-2.6,4.3-3.8C24.4,59.8,24.4,59.3,23.9,58.9z"/>
		<path class="st0" d="M51.4,30.6c6.3-1.2,12-3.9,17.3-7.4c2.8-1.9,5.5-4,7.5-6.8c0.9-1.2,1.6-2.4,1.9-3.8c0.5-2.1-0.4-3.8-2.6-4.4
			c-1.5-0.4-2.9-0.4-4.4-0.1c-4.3,0.8-8.3,2.4-12,4.8c-4.8,3-8.9,6.8-12.8,10.9c-2,2.1-3.8,4.3-5.6,6.5c0.4,0.3,0.8,0.4,1.2,0.5
			C45.1,31.4,48.3,31.2,51.4,30.6z"/>
		<path class="st0" d="M41.9,80.3c0.1-0.1,0.1-0.2,0.2-0.3c1.9-2.8,3.7-5.7,5.4-8.6c1.1-1.8,2.2-3.7,3.2-5.5
			c0.5-0.9,1.1-1.9,1.6-2.8c0.2-0.3,1.3-2.7,1.5-2.7c-0.8,0-1.2,0.5-1.7,0.8c-1.6,1.2-3.2,2.2-5,3c-0.6,0.3-0.9,0.7-1.2,1.2
			c-1.8,3.7-4.1,7.1-6.8,10.1L41.9,80.3L41.9,80.3z"/>
		<path class="st0" d="M118,28.3c-4,6.1-7.6,12.2-11.7,18.4C111.2,45.3,118,34.9,118,28.3z"/>
		<path class="st0" d="M21.7,85.2c-2.4,0.3-4.8,0.2-7.4-0.2c0.3,3.9,1.2,7.5,4.1,10.3c0.8,0.8,1.8,1.2,3,1.2c4.8,0,8.6-2.5,12-5.8
			l-4.5-7.5C26.6,84.1,24.2,84.8,21.7,85.2z"/>
		<path class="st0" d="M161.8,49.1c1.9-0.8,3.6-1.7,5.1-3.1c1.6-1.4,3-3,3.5-5.1c0.3-0.9-0.1-1.7-0.6-2.3c-0.6-0.7-1.4-0.4-2.1-0.2
			c-0.4,0.1-0.7,0.3-1,0.4c-4.1,2.5-6.8,6.2-8.9,10.7C159.4,49.7,160.6,49.6,161.8,49.1z"/>
		<path class="st0" d="M35,68.6l2.6,4.4c2.2-2,4.3-4.2,6.1-6.6c0.2-0.2,0.5-0.4,0.3-0.8c-4.5,1.3-6.5,1.6-10.2,1.2
			c-3.2-0.3-5.9-1.5-7.8-4.3c-0.3-0.5-0.7-0.9-1.1-1.4c-2,1.4-3.7,3.2-5.3,5c-1.6,1.8-2.7,3.8-3.3,6.1c-0.6,2.1-1.2,4.2-1.6,6.3
			c-0.3,1.3-0.6,2.6-0.3,4.1c2.4,0.2,4.7,0.3,6.9-0.2c2.1-0.4,4-1.2,5.9-2.2l-7-11.7H35z"/>
		<path class="st1" d="M37.6,73L35,68.6H20.1l7,11.7c0.4-0.2,0.9-0.4,1.3-0.7C31.8,77.7,34.8,75.5,37.6,73z"/>
		<path class="st1" d="M40.7,82c0.4-0.6,0.8-1.2,1.2-1.7l0-0.1l-2.8-4.7c0,0-0.1,0.1-0.1,0.1c-2.9,3.3-6.3,5.8-10.1,7.5l4.5,7.5
			c0.1-0.1,0.1-0.1,0.2-0.2C36.1,88,38.7,84.9,40.7,82z"/>
		<path class="st1" d="M35.2,93.6l0.6,1.1l6.4,10.6v23.4h13.2v-23l22.3-37H63L49,92.3l-4-6.8l-1-1.7C41.4,87.3,38.5,90.7,35.2,93.6z
			"/>
		<polygon class="st1" points="94,104.7 121.4,104.7 121.4,93 94,93 94,79.5 125,79.5 125,68.4 81.2,68.4 81.2,128.6 127.9,128.6 
			127.9,117.5 94,117.5 		"/>
		<polygon class="st1" points="133.4,79.8 152.4,79.7 152.4,128.7 165.7,128.7 165.7,79.7 184.6,79.8 184.6,68.7 133.4,68.7 		"/>
		<path class="st1" d="M203.3,88.2c0.7,0,1.4,0,2.1-0.1V68.6h-13.2v13.6C194.6,85.8,198.7,88.1,203.3,88.2z"/>
		<path class="st1" d="M192.1,86.7V87v41.7h13.2V91.2c-0.1,0-0.2,0-0.2,0C199.9,92.2,195.5,90.7,192.1,86.7z"/>
		<path class="st2" d="M192.1,82.2c-0.9-1.3-1.6-2.8-2-4.4c-0.9-3.5-0.6-7,0.2-10.5c1.2-5.3,3.4-10.3,6.2-14.9c2.9-4.8,6-9.5,9-14.3
			c0.2-0.4,0.7-0.7,0.6-1.5c-0.5-0.5-1.3-1.1-1.9-1.8c-0.8-0.8-1.7-0.9-2.8-0.5c-0.6,0.3-1.2,0.5-1.7,0.8c-1.3,0.8-2.6,1.6-3.9,2.4
			c-1.4,0.9-2.9,1.7-4.4,2.3c-0.3-0.3-0.2-0.6-0.2-0.8c0.2-0.8,0.5-1.5,0.7-2.3c0.2-0.8,0.3-1.6,0-2.3c-0.6-1.4-2.4-2.3-4.1-2
			c0.6,0.8,0.5,1.5,0.3,2.4c-0.8,3.1-2.5,5.9-4,8.6c-1.4,2.4-2.8,4.7-4.2,7.1c-1.1,1.8-1.7,3.7-2.3,5.7c-0.9,3.3-0.2,6.2,2,8.8
			c0.5,0.6,1,1.3,2.1,1.7c-1-2.3-1.2-4.5-0.8-6.6c0.7-3.9,2.8-7.1,5.1-10.3c0.6,0.8,1,1.6,2.2,1.8c-0.7-2.1-0.2-4,0.8-5.7
			c2.4-3.9,6-6.2,10.1-8.1c0.2,0.4,0,0.5-0.1,0.7c-3.9,6-6.8,12.5-8.8,19.3c-1.8,6-2.9,12.1-2.1,18.5c0.5,3.4,1.6,6.6,3.6,9.4
			c0.2,0.3,0.5,0.6,0.7,0.9v-3.6V82.2z"/>
		<path class="st2" d="M224.6,52.3c-0.4-3.9-1.1-7.8-2.8-11.4c-2.1-4.6-5.6-8-10.2-10.3c-2.6-1.3-5.5-2-8.3-2.7
			c-3.8-0.9-7.7-1.6-11.6-2c-4-0.5-8-1.2-12-2.3c-4.7-1.3-8-4.3-10-8.6c-0.7-1.5-1.2-3-1.8-4.6c-0.1-0.3-0.1-0.8-0.7-0.8
			c-0.2,1.6-0.2,3.3-0.1,4.9c0.2,2.1,0.8,4.1,1.9,5.8c2,3.2,4.9,5.1,8.4,6.2c5.3,1.8,10.7,2.4,16.2,2.9c4.3,0.4,8.5,0.8,12.8,1.7
			c2.8,0.6,5.6,1.4,8,2.9c3.4,2.2,5.5,5.4,6.8,9.1c2.2,6.5,2.7,13.1,1.8,19.9c-0.2,1.7-0.6,3.4-1.3,5.1c-0.2-0.5-0.1-0.9-0.1-1.2
			c0.3-3.7-0.2-7.3-1.4-10.8c-0.9-2.6-2.3-4.8-4.9-6c-1-0.5-2.1-0.7-3.5,0.3c2.4-0.5,4.1,0.4,5.4,1.9c1.1,1.2,1.9,2.6,2.5,4.2
			c1.7,5.3,1.7,10.6,0.4,16c-1.2,4.9-3.9,8.8-7.8,12.1c-2.1,1.8-4.4,2.9-7,3.3v0.3v2.7v0.1c4.7-0.9,8.6-3.5,11.7-7.3
			c4.6-5.8,6.7-12.6,7.5-19.8C224.9,60.2,225,56.3,224.6,52.3z"/>
		<path class="st2" d="M205.3,88.4v-0.3c-0.7,0.1-1.4,0.1-2.1,0.1c-4.5-0.1-8.6-2.4-11.1-6v0.9v3.6c3.3,4,7.8,5.5,13,4.6
			c0.1,0,0.2,0,0.2,0v-0.1V88.4z"/>
		<path class="st2" d="M135.4,66.7c1.6-0.6,2.9-1.5,4.2-2.6c3.5-2.9,6.5-6.1,8.6-10.1c1.1-2.2,1.7-4.5,1.5-6.9
			c-0.1-2.2-0.8-3-3.2-3.9c1,2.5,1.3,4.9,0.5,7.3c-1.6,5.2-4.4,9.7-8.6,13.3c-0.7,0.6-1.4,1.1-2.3,1.5c-1.6,0.7-2.5,0.4-3.1-1.2
			c-0.4-1.1-0.7-2.3-0.5-3.6c0.2-1.6,0.7-3.1,1.3-4.6c1.3-2.9,3-5.5,4.8-8c4.9-7,9.3-14.3,13.7-21.6c0.5-0.9,0.8-1.8,1.1-2.8
			c0.4-1.8-0.2-3.3-1.4-4.7c-0.5-0.6-1.1-1-1.8-1.3c-0.7-0.4-0.9-1.3-1.7-1.5c-0.2,0.1-0.3,0.3-0.2,0.5c0.5,1.3,0.3,2.6-0.3,3.9
			c-0.4,0.9-0.7,1.8-1.2,2.6c-1.8,3-3.6,6.1-5.6,9.1c-1,1.6-2.1,3.2-3.4,4.6c-2-1.1-4-1.4-6.2-1.1c-3.3,0.5-6.1,2.1-8.5,4.3
			c-3.9,3.8-6.3,8.5-7.5,13.7c-0.6,2.4-0.9,4.8-0.3,7.2c0.6,2.2,1.4,4.4,3.5,5.7c1,0.7,2,0.6,2.9-0.2c0.3-0.3,0.6-0.6,0.9-0.9
			c2-2,3.3-4.4,4.9-6.7c0.3-0.5,0.6-1,1.2-1.5c0,0.9,0,1.6,0,2.3c0.2,3,1.3,5.4,4,7C133.7,67,134.5,67.1,135.4,66.7z M131.3,43.7
			c1.2,2,0.7,3.8-0.2,5.7c-1.9,4.2-4.7,7.9-7.2,11.8c-0.6,0.9-1.3,1.8-2,2.7c-0.4,0.5-0.8,1-1.6,1.3c-1.5-1.5-2-3.2-1.7-5.2
			c0.4-2.3,1.2-4.4,2.3-6.4c2.3-4.5,5.3-8.6,9-12c1.2-1.2,2.6-2.2,4.2-2.8c1-0.3,1.9-0.5,3.1,0.1c-1,1.7-2,3.4-3,5.1
			c-1-0.3-1.9-0.9-2.9-0.5C131.3,43.5,131.3,43.6,131.3,43.7z"/>
		<path class="st2" d="M99,47.2c-1.7,3.3-3.2,6.7-3.5,10.5c-0.2,2.9,0.4,5.6,2.5,7.7c1,1,2.2,1.3,3.6,0.7c2.7-1.1,5-2.8,7-4.8
			c3.4-3.3,5.2-7.5,6.7-11.9c0.4-1.1,0.4-2.3,0.4-3.5c-0.1-1.6-1-2.5-2.7-2.6c0.5,1.6,0.5,3.2,0.3,4.8c-0.3,2.2-1.2,4.3-2,6.3
			c-1.8,4.3-4.6,7.7-8.8,9.9c-1.8,0.9-3,0.4-3.3-1.6c-0.2-1.5-0.2-3.1,0.3-4.6c1.1-3.8,3.4-6.9,5.5-10.2c0.3-0.4,0.7-0.5,1.1-0.7
			c1.9-0.7,3.6-1.9,5.1-3.2c4.2-3.9,7-8.6,8.7-14c0.7-2.2,1.1-4.5,0.7-6.9c-0.3-2-1-3.8-2.5-5.2c-0.8-0.8-1.8-1-3-0.9
			c0.3,1.4-0.3,2.6-0.8,3.8c-0.8,2-1.8,3.8-2.8,5.7c-2.8,5.1-6,10-9.2,14.9c-0.6,0.9-1.1,1.8-1.7,2.7c-0.5-3.2,0.9-5.6,3.5-7.9
			c-1.4,0.2-2.2,0.6-3,1.1c-2.4,1.5-3.3,4.5-2,7C99.6,45.5,99.5,46.2,99,47.2z M118,28.3c0,6.6-6.7,17-11.7,18.4
			C110.3,40.5,114,34.4,118,28.3z"/>
		<path class="st2" d="M152,43.6c0.1,1.1,0.4,2.2,0.8,3.2c0.2,0.5,0.2,1,0,1.5c-1.2,3.5-1.3,7.1-0.7,10.7c0.4,2.2,1.2,4.2,2.5,5.9
			c0.6,0.8,1.4,1.6,2.5,1.4c0.8-0.1,1.6-0.2,2.3-0.6c1.5-0.8,3-1.4,4.4-2.3c2.5-1.5,5-3.2,7.1-5.4c2.8-2.8,4.5-6.3,5.3-10.2
			c0.1-0.7,0.2-1.5,0.1-2.2c-0.2-1.6-0.8-2.2-2.6-2.4c1,3.8-0.2,7.1-2,10.3c-1.4,2.6-3.4,4.9-5.7,6.8c-2.1,1.7-4.3,3.1-6.9,3.9
			c-1.5,0.5-2.2,0.2-2.8-1.2c-0.2-0.5-0.3-1-0.4-1.5c-0.2-2.8-0.1-5.5,0.6-8.2c0.2-0.7,0.3-1.5,0.8-2c2.1,0.4,3.1,0.3,5-0.5
			c3.5-1.5,6.5-3.8,9.3-6.3c0.7-0.7,1.3-1.5,1.9-2.4c1-1.6,1-3.2,0-4.8c-0.8-1.2-1.9-2.3-2.8-3.5c-0.7-1-1.5-1-2.5-0.8
			c-1.5,0.3-3,0.8-4.3,1.6c-3.7,2-6.5,4.9-8.7,8.4c-0.3,0.5-0.7,1.1-1.2,1.9c0-0.8,0-1.3,0-1.8c-0.1-1.6,0.5-2.9,1.8-3.9
			c0.6-0.5,1.3-0.9,1.9-1.4c0.3-0.2,0.7-0.3,0.8-0.9c-1.9-0.5-3.5-0.4-4.8,1.2C152.5,39.8,151.8,41.6,152,43.6z M166.8,38.8
			c0.3-0.2,0.7-0.3,1-0.4c0.7-0.2,1.5-0.6,2.1,0.2c0.5,0.7,0.8,1.4,0.6,2.3c-0.6,2.1-1.9,3.7-3.5,5.1c-1.5,1.3-3.3,2.3-5.1,3.1
			c-1.2,0.5-2.4,0.6-3.9,0.4C160,45,162.7,41.3,166.8,38.8z"/>
		<path class="st2" d="M95.1,37.7c-0.7-0.9-1.6-1.5-2.7-1.9c-1.2-0.4-2.6-0.5-3.8-0.4c-2.8,0.2-5.6,1.2-7.8,2.9
			c-2.4,1.9-5.1,3.2-7.9,4.5c-1.6,0.7-3.3,1-5.3,1.3c2.3-3.5,4.6-6.5,7.8-9c-1-0.5-1.9-0.6-3.1-0.5c-2.5,0.2-5,0.4-7.4,0.6
			c-3.2,0.3-6.3,0.5-9.4,1.3c-3.2,0.8-5.9,2.5-7.6,5.4c-1.1,1.9-1,3.9,0,5.9c0.4,0.7,0.9,1.2,1.7,1.5c2.4,0.8,5-0.4,6-2.8
			c0.1-0.3,0.4-0.6,0.1-1c-0.5,0.2-0.5,0.6-0.7,0.9c-0.8,1.3-1.9,2-3.3,2.3c-1.5,0.3-2.8-0.3-3.3-1.8c-0.5-1.3-0.4-2.6,0.3-3.8
			c1.2-2,3-3.3,5-4.2c3.6-1.5,7.2-1.3,10.9-0.6c0.1,0,0.1,0.1,0.2,0.3c-1,1.6-1.7,3.4-2.8,4.9c-1.4-0.1-2.3-0.8-3.2-1.6
			c-0.5,0.4-0.6,0.9-0.5,1.4c0.3,1.4,1.8,1.5,2.7,2.3c-2.7,7-7.6,12.1-13.8,16.6c0.3-1.2,0.6-2.1,0.8-3c0.6-2.8,0.8-5.6-0.2-8.3
			c-0.9-2.6-2.7-4.2-5.5-4.8c-2.6-0.6-4.9,0-7.3,0.8c-1.9,0.6-3.6,1.6-5.6,2.8c2.4-7.1,6.3-12.9,10.5-18.5c1.2,0.2,2.2,0.5,3.3,0.6
			c3.2,0.4,6.3,0.2,9.5-0.3c6-0.8,11.7-2.5,17.1-5c2.8-1.3,5.4-2.9,7.7-5.1c1.7-1.6,3.2-3.4,3.9-5.7c1.2-4.3-0.1-7-4.4-8.3
			c-2.8-0.8-5.7-0.8-8.5-0.4c-5.9,0.8-11.4,2.8-16.5,5.8c-6.4,3.6-12.3,7.9-17.1,13.6c-0.1,0.1-0.3,0.2-0.4,0.3
			c-0.7-0.5-1.1-1.3-1.6-2c-1.1-1.7-1.7-3.6-1.5-5.6c0.3-3,1.5-5.7,3.4-8.1c3.7-4.6,8.4-7.5,14.1-9c3.6-1,7.2-1.1,10.7,0.8
			c0.3,0.1,0.6,0.3,0.8-0.2c-0.1-0.1-0.2-0.2-0.4-0.3c-0.3-0.2-0.6-0.4-1-0.5c-4.5-2.2-9.3-2.2-14-0.9c-6.7,1.8-11.5,6.1-13.9,12.7
			c-1.7,4.6-1,9,2.1,12.9c0.2,0.3,0.6,0.5,0.6,1c-0.8,1.1-1.7,2.2-2.5,3.4c-4.9,6.8-8,14.1-8.1,22.6c0,0.9-0.2,1.9-1,2.7
			c-6.2,7-10,15-10.8,24.4c0,0.4,0.1,0.9-0.5,1.1c-0.9-0.4-1.9-0.9-2.8-1.4c-5.2-3.1-7-9.7-5.2-14.9c0.5-1.4,1.2-2.7,2-3.8
			c-0.3-0.1-0.5,0.6-0.7,0.3c-2,2.3-3.2,4.1-3.3,7.4c0,4,1.2,7.5,4,10.4c1.6,1.6,3.5,2.8,5.3,4c0.6,0.3,0.8,0.7,0.9,1.4
			c0.1,1.6,0.4,3.2,0.9,4.7c1.2,3.9,3.5,7,7.6,8.2c4,1.2,8,0.9,11.6-1.5c1.3-0.8,2.5-1.8,3.7-2.8L33.6,91l-0.2-0.3
			c-3.4,3.3-7.2,5.9-12,5.8c-1.2,0-2.2-0.4-3-1.2c-2.9-2.8-3.8-6.3-4.1-10.3c2.6,0.4,5,0.5,7.4,0.2c2.6-0.4,5-1.1,7.2-2.1L28.8,83
			l-1.5-2.6l-0.1-0.1c-1.9,1-3.8,1.7-5.9,2.2c-2.3,0.5-4.5,0.4-6.9,0.2c-0.2-1.5,0-2.8,0.3-4.1c0.4-2.1,1.1-4.2,1.6-6.3
			c0.6-2.3,1.7-4.3,3.3-6.1c1.6-1.8,3.3-3.6,5.3-5c0.4,0.5,0.7,0.9,1.1,1.4c1.9,2.7,4.6,4,7.8,4.3c3.7,0.4,5.6,0.1,10.2-1.2
			c0.3,0.4-0.1,0.6-0.3,0.8c-1.9,2.4-3.9,4.6-6.1,6.6l0,0l1.3,2.2l0.2,0.3c2.7-3.1,5-6.4,6.8-10.1c0.3-0.5,0.6-0.9,1.2-1.2
			c1.8-0.8,3.4-1.9,5-3c0.4-0.3,0.8-0.8,1.7-0.8c-0.2,0-1.3,2.4-1.5,2.7c-0.5,0.9-1,1.9-1.6,2.8c-1.1,1.9-2.1,3.7-3.2,5.5
			c-1.7,2.9-3.5,5.8-5.4,8.6c-0.1,0.1-0.1,0.2-0.2,0.3l2.1,3.5c0.9-1.2,1.8-2.4,2.6-3.6c2.8-4.1,5.3-8.4,7.8-12.7
			c3.8-6.4,7.5-12.8,10.9-19.4c0.7-1.4,1.4-2.4,3.2-2.5c2.3-0.1,4.6-0.9,6.7-2c0.1,0.4,0,0.5-0.2,0.7c-1.9,3.1-3.2,6.4-3.7,10.1
			c-0.4,3-0.2,5.9,1.1,8.7c1.6,3.6,5.3,5.4,9.3,3.6c3.3-1.5,5.8-3.8,8-6.6c1.4-1.8,2-3.8,2.7-5.9c0.6-1.7,0.9-3.4,0.6-5.2
			c-0.1-0.8,0.1-1.4,0.6-2c0.7-0.8,1.3-1.6,1.9-2.6C96.8,42.3,96.5,39.6,95.1,37.7z M46.3,23.7c3.9-4.1,8-7.9,12.8-10.9
			c3.7-2.4,7.7-4,12-4.8c1.5-0.3,3-0.3,4.4,0.1c2.1,0.6,3.1,2.3,2.6,4.4c-0.3,1.4-1,2.7-1.9,3.8c-2.1,2.8-4.7,4.9-7.5,6.8
			c-5.3,3.5-11,6.2-17.3,7.4c-3.1,0.6-6.3,0.8-9.5,0.2c-0.4-0.1-0.8-0.2-1.2-0.5C42.5,28,44.4,25.8,46.3,23.7z M20.5,64.2
			c0.8-2,2.2-3.6,3.4-5.3c0.5,0.4,0.6,0.9,0.8,1.4C23.3,61.6,21.9,62.9,20.5,64.2z M46.4,62.4c-0.1,0.3-0.3,0.5-0.6,0.7
			c-2.8,1.5-5.7,2.6-9,2.3c-3.9-0.3-6.8-2.7-7.9-6.4c-0.1-0.2,0-0.4-0.1-0.7c2-1.3,4.1-1.9,6.5-1.8c1.6,0.1,2.4,0.8,3.3,2.7
			c0.2-1.6-0.1-2.1-1.2-2.7c-1.5-0.8-3.1-0.7-4.6-0.5c-1.4,0.2-2.6,0.8-3.8,1.4c-0.5-0.3-0.4-0.7-0.4-1c0.3-2.4,1.2-4.4,3.4-5.8
			c2.4-1.6,4.8-2.9,7.5-3.6c3.2-0.8,7,1,8,5.2C48.5,55.7,47.6,59.1,46.4,62.4z M88.9,53.1c-0.5,2.4-1.3,4.8-2.5,7
			c-1.1,2.2-2.6,4-4.9,5.1c-2.3,1.1-3.4,0.7-5-1.4c-1.4-1.9-1.5-4.1-1.1-6.3c0.7-4.1,2.3-7.9,4.6-11.4c0.1-0.2,0.2-0.4,0.6-0.4
			c1.4,4.5,3.7,5.7,8.3,4.3C89.2,51,89.2,52.1,88.9,53.1z M93.4,40.4c-0.2,1.5-0.7,2.7-1.9,4.3c-0.7-0.2-2.3-1.8-3-1.3
			c-0.4,0.2-0.3,0.8-0.2,1.2c0.5,1.2,1.1,2.8-0.3,3.7c-1.1,0.7-2.1,1-3.3,0.3c-1.5-0.9-2.1-2.6-1.8-4.4c0.7-3.3,4.3-6.6,7.8-6.9
			C92.5,37.1,93.7,38.5,93.4,40.4z"/>
		<path class="st1" d="M40.7,82c-2,2.9-4.6,6-7.1,8.5c-0.1,0.1-0.1,0.1-0.2,0.2l0.2,0.3l1.6,2.6c3.3-2.8,6.2-6.2,8.8-9.7l-2.1-3.5
			C41.5,80.9,41.1,81.5,40.7,82z"/>
		<path class="st2" d="M39,75.6c0,0,0.1-0.1,0.1-0.1l-0.2-0.3L37.6,73l0,0c-2.8,2.5-5.8,4.7-9.2,6.6c-0.4,0.2-0.9,0.5-1.3,0.7
			l0.1,0.1l1.5,2.6l0.1,0.2C32.7,81.5,36,78.9,39,75.6z"/>
	</g>
	<path class="st2" d="M93.4,144.6c0.3,0.3,0.6,0.5,1,0.7c0.4,0.2,0.8,0.3,1.2,0.3c0.4,0,0.8-0.1,1.2-0.3c0.4-0.2,0.7-0.4,1-0.7
		c0.3-0.3,0.5-0.6,0.7-1c0.2-0.4,0.2-0.8,0.2-1.2s-0.1-0.8-0.2-1.2c-0.2-0.4-0.4-0.7-0.7-1c-0.3-0.3-0.6-0.5-1-0.7
		c-0.4-0.2-0.8-0.3-1.2-0.3c-0.4,0-0.8,0.1-1.2,0.3c-0.4,0.2-0.7,0.4-1,0.7c-0.3,0.3-0.5,0.6-0.7,1c-0.2,0.4-0.3,0.8-0.3,1.2
		s0.1,0.8,0.3,1.2C92.9,143.9,93.1,144.3,93.4,144.6z"/>
	<path class="st2" d="M20,150.8h186.1v-17.2H20V150.8z M194.9,137.1h7.6v1.9h-5.4v2.3h4.7v2h-4.7v2.2h5.9v1.9h-8.1V137.1z
		 M183.1,137.2l2.3,7.3h0l2.3-7.3h2.4l-3.4,10.4h-2.6l-3.4-10.4H183.1z M173.6,137.2h2.3v10.4h-2.3V137.2z M159.4,137.2h8.9v1.9
		l-3.3,0v8.5h-2.3v-8.5l-3.3,0V137.2z M145.1,140.3c0.3-0.6,0.7-1.2,1.1-1.7c0.5-0.5,1-0.9,1.7-1.1c0.6-0.3,1.3-0.4,2-0.4
		c0.5,0,1,0.1,1.4,0.2c0.5,0.1,0.9,0.3,1.3,0.6c0.4,0.2,0.7,0.5,1.1,0.9c0.3,0.3,0.6,0.7,0.8,1.1c-0.2,0.1-0.4,0.2-0.5,0.3
		c-0.1,0.1-0.3,0.1-0.4,0.2c-0.1,0.1-0.3,0.1-0.4,0.2c-0.2,0.1-0.4,0.2-0.6,0.3c-0.3-0.4-0.6-0.8-1.1-1.1c-0.5-0.3-1-0.4-1.5-0.4
		c-0.4,0-0.8,0.1-1.2,0.2c-0.4,0.2-0.7,0.4-1,0.7c-0.3,0.3-0.5,0.6-0.7,1c-0.2,0.4-0.2,0.8-0.2,1.2c0,0.4,0.1,0.8,0.2,1.2
		c0.2,0.4,0.4,0.7,0.7,1c0.3,0.3,0.6,0.5,1,0.7c0.4,0.2,0.8,0.2,1.2,0.2c0.6,0,1.1-0.1,1.6-0.4c0.5-0.3,0.9-0.7,1.1-1.2
		c0.2,0.1,0.4,0.2,0.6,0.3c0.2,0.1,0.3,0.2,0.4,0.2c0.1,0.1,0.3,0.1,0.4,0.2c0.1,0.1,0.3,0.2,0.6,0.3c-0.2,0.4-0.5,0.8-0.8,1.1
		c-0.3,0.3-0.7,0.6-1.1,0.9c-0.4,0.2-0.8,0.4-1.3,0.6c-0.5,0.1-1,0.2-1.5,0.2c-0.7,0-1.4-0.1-2-0.4c-0.6-0.3-1.2-0.7-1.7-1.1
		c-0.5-0.5-0.9-1-1.1-1.7c-0.3-0.6-0.4-1.3-0.4-2C144.6,141.6,144.8,140.9,145.1,140.3z M131.5,137.1h7.6v1.9h-5.4v2.3h4.7v2h-4.7
		v2.2h5.9v1.9h-8.1V137.1z M118.8,137.1h2.2v8.4h5.3v1.9h-7.6V137.1z M106.2,137.1h2.2v8.4h5.3v1.9h-7.6V137.1z M90.7,140.2
		c0.3-0.7,0.7-1.2,1.1-1.7c0.5-0.5,1.1-0.9,1.7-1.1c0.6-0.3,1.3-0.4,2.1-0.4c0.7,0,1.4,0.1,2.1,0.4c0.7,0.3,1.2,0.7,1.7,1.1
		c0.5,0.5,0.9,1.1,1.2,1.7c0.3,0.7,0.4,1.4,0.4,2.1c0,0.7-0.1,1.4-0.4,2.1c-0.3,0.6-0.7,1.2-1.2,1.7c-0.5,0.5-1.1,0.9-1.7,1.1
		c-0.7,0.3-1.3,0.4-2.1,0.4c-0.7,0-1.4-0.1-2.1-0.4c-0.6-0.3-1.2-0.7-1.7-1.1c-0.5-0.5-0.9-1.1-1.1-1.7c-0.3-0.6-0.4-1.3-0.4-2.1
		C90.3,141.6,90.4,140.9,90.7,140.2z M76.1,140.3c0.3-0.6,0.7-1.2,1.1-1.7c0.5-0.5,1-0.9,1.7-1.1c0.6-0.3,1.3-0.4,2-0.4
		c0.5,0,1,0.1,1.4,0.2c0.5,0.1,0.9,0.3,1.3,0.6c0.4,0.2,0.7,0.5,1.1,0.9c0.3,0.3,0.6,0.7,0.8,1.1c-0.2,0.1-0.4,0.2-0.5,0.3
		c-0.1,0.1-0.3,0.1-0.4,0.2c-0.1,0.1-0.3,0.1-0.4,0.2c-0.2,0.1-0.4,0.2-0.6,0.3c-0.3-0.4-0.6-0.8-1.1-1.1c-0.5-0.3-1-0.4-1.5-0.4
		c-0.4,0-0.8,0.1-1.2,0.2c-0.4,0.2-0.7,0.4-1,0.7c-0.3,0.3-0.5,0.6-0.7,1c-0.2,0.4-0.2,0.8-0.2,1.2c0,0.4,0.1,0.8,0.2,1.2
		c0.2,0.4,0.4,0.7,0.7,1c0.3,0.3,0.6,0.5,1,0.7c0.4,0.2,0.8,0.2,1.2,0.2c0.6,0,1.1-0.1,1.6-0.4c0.5-0.3,0.9-0.7,1.1-1.2
		c0.2,0.1,0.4,0.2,0.6,0.3c0.2,0.1,0.3,0.2,0.4,0.2c0.1,0.1,0.3,0.1,0.4,0.2c0.1,0.1,0.3,0.2,0.6,0.3c-0.2,0.4-0.5,0.8-0.8,1.1
		c-0.3,0.3-0.7,0.6-1.1,0.9c-0.4,0.2-0.8,0.4-1.3,0.6c-0.5,0.1-1,0.2-1.5,0.2c-0.7,0-1.4-0.1-2-0.4c-0.6-0.3-1.2-0.7-1.7-1.1
		c-0.5-0.5-0.9-1-1.1-1.7c-0.3-0.6-0.4-1.3-0.4-2C75.6,141.6,75.8,140.9,76.1,140.3z M53.5,137.2h8.9v1.9l-3.3,0v8.5h-2.3v-8.5
		l-3.3,0V137.2z M39.9,137.2h4.7c0.6,0,1.2,0.1,1.7,0.3c0.5,0.2,0.8,0.4,1.1,0.7c0.3,0.3,0.5,0.7,0.6,1.1c0.1,0.4,0.2,0.8,0.2,1.2
		c0,0.3,0,0.7-0.1,1c-0.1,0.3-0.2,0.7-0.4,1c-0.2,0.3-0.5,0.5-0.8,0.8c-0.3,0.2-0.7,0.4-1.1,0.5h0.1l2.7,3.9h-2.6l-2.6-3.7h-1.1v3.7
		h-2.3V137.2z M27.8,137.2h2.3l4.6,10.4h-2.1l-1.1-2.3h-5.2l-1.1,2.3h-2.1L27.8,137.2z"/>
	<polygon class="st2" points="29,139.1 29,139.1 27.3,143.2 30.7,143.2 	"/>
	<path class="st2" d="M44.7,142c0.2,0,0.5-0.1,0.6-0.2c0.2-0.1,0.3-0.3,0.4-0.5c0.1-0.2,0.2-0.5,0.2-0.8c0-0.3-0.1-0.6-0.2-0.8
		c-0.1-0.2-0.2-0.4-0.4-0.5c-0.2-0.1-0.4-0.2-0.6-0.2c-0.2,0-0.5-0.1-0.8-0.1h-1.8v3.1H44C44.2,142.1,44.5,142.1,44.7,142z"/>
	<path d="M26.3,145.3h5.2l1.1,2.3h2.1l-4.6-10.4h-2.3l-4.7,10.4h2.1L26.3,145.3z M29,139.1L29,139.1l1.7,4h-3.4L29,139.1z"/>
	<path d="M42.2,143.8h1.1l2.6,3.7h2.6l-2.7-3.9h-0.1c0.4-0.1,0.8-0.3,1.1-0.5c0.3-0.2,0.6-0.5,0.8-0.8c0.2-0.3,0.3-0.6,0.4-1
		c0.1-0.3,0.1-0.7,0.1-1c0-0.4-0.1-0.8-0.2-1.2c-0.1-0.4-0.3-0.8-0.6-1.1c-0.3-0.3-0.7-0.6-1.1-0.7c-0.5-0.2-1-0.3-1.7-0.3h-4.7
		v10.4h2.3V143.8z M42.2,139H44c0.3,0,0.5,0,0.8,0.1c0.2,0,0.5,0.1,0.6,0.2c0.2,0.1,0.3,0.3,0.4,0.5c0.1,0.2,0.2,0.5,0.2,0.8
		c0,0.3-0.1,0.6-0.2,0.8c-0.1,0.2-0.2,0.4-0.4,0.5c-0.2,0.1-0.4,0.2-0.6,0.2c-0.2,0-0.5,0.1-0.8,0.1h-1.8V139z"/>
	<polygon points="56.8,147.6 59.1,147.6 59.1,139.1 62.4,139.1 62.4,137.2 53.5,137.2 53.5,139.1 56.8,139.1 	"/>
	<path d="M77.2,146c0.5,0.5,1,0.9,1.7,1.1c0.6,0.3,1.3,0.4,2,0.4c0.5,0,1-0.1,1.5-0.2c0.5-0.1,0.9-0.3,1.3-0.6
		c0.4-0.2,0.8-0.5,1.1-0.9c0.3-0.3,0.6-0.7,0.8-1.1c-0.2-0.1-0.4-0.2-0.6-0.3c-0.1-0.1-0.3-0.1-0.4-0.2c-0.1-0.1-0.3-0.1-0.4-0.2
		c-0.2-0.1-0.3-0.2-0.6-0.3c-0.3,0.5-0.6,0.9-1.1,1.2c-0.5,0.3-1,0.4-1.6,0.4c-0.4,0-0.8-0.1-1.2-0.2c-0.4-0.2-0.7-0.4-1-0.7
		c-0.3-0.3-0.5-0.6-0.7-1c-0.2-0.4-0.2-0.8-0.2-1.2c0-0.4,0.1-0.8,0.2-1.2c0.2-0.4,0.4-0.7,0.7-1c0.3-0.3,0.6-0.5,1-0.7
		c0.4-0.2,0.8-0.2,1.2-0.2c0.6,0,1.1,0.1,1.5,0.4c0.5,0.3,0.8,0.6,1.1,1.1c0.2-0.1,0.4-0.2,0.6-0.3c0.2-0.1,0.3-0.1,0.4-0.2
		c0.1-0.1,0.3-0.1,0.4-0.2c0.1-0.1,0.3-0.2,0.5-0.3c-0.2-0.4-0.5-0.8-0.8-1.1c-0.3-0.3-0.7-0.6-1.1-0.9c-0.4-0.2-0.8-0.4-1.3-0.6
		c-0.5-0.1-0.9-0.2-1.4-0.2c-0.7,0-1.4,0.1-2,0.4c-0.6,0.3-1.2,0.7-1.7,1.1c-0.5,0.5-0.9,1-1.1,1.7c-0.3,0.6-0.4,1.3-0.4,2
		c0,0.7,0.1,1.4,0.4,2C76.3,145,76.7,145.6,77.2,146z"/>
	<path d="M91.8,146.1c0.5,0.5,1.1,0.9,1.7,1.1c0.6,0.3,1.3,0.4,2.1,0.4c0.7,0,1.4-0.1,2.1-0.4c0.7-0.3,1.2-0.7,1.7-1.1
		c0.5-0.5,0.9-1.1,1.2-1.7c0.3-0.6,0.4-1.3,0.4-2.1c0-0.7-0.1-1.4-0.4-2.1c-0.3-0.7-0.7-1.2-1.2-1.7c-0.5-0.5-1.1-0.9-1.7-1.1
		c-0.7-0.3-1.3-0.4-2.1-0.4c-0.7,0-1.4,0.1-2.1,0.4c-0.6,0.3-1.2,0.7-1.7,1.1c-0.5,0.5-0.9,1.1-1.1,1.7c-0.3,0.7-0.4,1.4-0.4,2.1
		c0,0.7,0.1,1.4,0.4,2.1C91,145.1,91.4,145.6,91.8,146.1z M92.7,141.1c0.2-0.4,0.4-0.7,0.7-1c0.3-0.3,0.6-0.5,1-0.7
		c0.4-0.2,0.8-0.3,1.2-0.3c0.4,0,0.8,0.1,1.2,0.3c0.4,0.2,0.7,0.4,1,0.7c0.3,0.3,0.5,0.6,0.7,1c0.2,0.4,0.2,0.8,0.2,1.2
		s-0.1,0.8-0.2,1.2c-0.2,0.4-0.4,0.7-0.7,1c-0.3,0.3-0.6,0.5-1,0.7c-0.4,0.2-0.8,0.3-1.2,0.3c-0.4,0-0.8-0.1-1.2-0.3
		c-0.4-0.2-0.7-0.4-1-0.7c-0.3-0.3-0.5-0.6-0.7-1c-0.2-0.4-0.3-0.8-0.3-1.2S92.6,141.5,92.7,141.1z"/>
	<polygon points="113.7,145.6 108.4,145.6 108.4,137.1 106.2,137.1 106.2,147.5 113.7,147.5 	"/>
	<polygon points="126.4,145.6 121.1,145.6 121.1,137.1 118.8,137.1 118.8,147.5 126.4,147.5 	"/>
	<polygon points="139.5,145.6 133.7,145.6 133.7,143.4 138.4,143.4 138.4,141.4 133.7,141.4 133.7,139.1 139,139.1 139,137.1 
		131.5,137.1 131.5,147.5 139.5,147.5 	"/>
	<path d="M146.2,146c0.5,0.5,1,0.9,1.7,1.1c0.6,0.3,1.3,0.4,2,0.4c0.5,0,1-0.1,1.5-0.2c0.5-0.1,0.9-0.3,1.3-0.6
		c0.4-0.2,0.8-0.5,1.1-0.9c0.3-0.3,0.6-0.7,0.8-1.1c-0.2-0.1-0.4-0.2-0.6-0.3c-0.1-0.1-0.3-0.1-0.4-0.2c-0.1-0.1-0.3-0.1-0.4-0.2
		c-0.2-0.1-0.3-0.2-0.6-0.3c-0.3,0.5-0.6,0.9-1.1,1.2c-0.5,0.3-1,0.4-1.6,0.4c-0.4,0-0.8-0.1-1.2-0.2c-0.4-0.2-0.7-0.4-1-0.7
		c-0.3-0.3-0.5-0.6-0.7-1c-0.2-0.4-0.2-0.8-0.2-1.2c0-0.4,0.1-0.8,0.2-1.2c0.2-0.4,0.4-0.7,0.7-1c0.3-0.3,0.6-0.5,1-0.7
		c0.4-0.2,0.8-0.2,1.2-0.2c0.6,0,1.1,0.1,1.5,0.4c0.5,0.3,0.8,0.6,1.1,1.1c0.2-0.1,0.4-0.2,0.6-0.3c0.2-0.1,0.3-0.1,0.4-0.2
		c0.1-0.1,0.3-0.1,0.4-0.2c0.1-0.1,0.3-0.2,0.5-0.3c-0.2-0.4-0.5-0.8-0.8-1.1c-0.3-0.3-0.7-0.6-1.1-0.9c-0.4-0.2-0.8-0.4-1.3-0.6
		c-0.5-0.1-0.9-0.2-1.4-0.2c-0.7,0-1.4,0.1-2,0.4c-0.6,0.3-1.2,0.7-1.7,1.1c-0.5,0.5-0.9,1-1.1,1.7c-0.3,0.6-0.4,1.3-0.4,2
		c0,0.7,0.1,1.4,0.4,2C145.3,145,145.7,145.6,146.2,146z"/>
	<polygon points="162.7,147.6 164.9,147.6 164.9,139.1 168.2,139.1 168.2,137.2 159.4,137.2 159.4,139.1 162.7,139.1 	"/>
	<rect x="173.6" y="137.2" width="2.3" height="10.4"/>
	<polygon points="186.7,147.6 190.2,137.2 187.8,137.2 185.5,144.5 185.5,144.5 183.1,137.2 180.8,137.2 184.2,147.6 	"/>
	<polygon points="202.9,145.6 197.1,145.6 197.1,143.4 201.8,143.4 201.8,141.4 197.1,141.4 197.1,139.1 202.4,139.1 202.4,137.1 
		194.9,137.1 194.9,147.5 202.9,147.5 	"/>
	<polygon class="st2" points="3.9,153.5 18.8,153.5 18.8,138.5 3.9,138.5 11.3,146 	"/>
	<polygon class="st2" points="222.2,153.5 207.2,153.5 207.2,138.5 222.2,138.5 214.7,146 	"/>
</g>
</svg>
