<?xml version="1.0" encoding="UTF-8" standalone="no"?>
<svg width="41px" height="53px" viewBox="0 0 41 53" version="1.1" xmlns="http://www.w3.org/2000/svg" xmlns:xlink="http://www.w3.org/1999/xlink">
    <!-- Generator: Sketch 3.6.1 (26313) - http://www.bohemiancoding.com/sketch -->
    <title>Pin Point Icon</title>
    <desc>Created with Sketch.</desc>
    <defs>
        <path id="path-1" d="M0,0 L41,0 L41,53 L0,53"></path>
    </defs>
    <g id="Contact-Us" stroke="none" stroke-width="1" fill="none" fill-rule="evenodd">
        <g transform="translate(-689.000000, -1260.000000)" id="Pin-Point-Icon">
            <g transform="translate(689.000000, 1260.000000)">
                <mask id="mask-2" fill="white">
                    <use xlink:href="#path-1"></use>
                </mask>
                <g id="Clip-2"></g>
                <path d="M12.2989939,20.356028 C12.2989939,15.8604388 15.9693742,12.2140164 20.4989939,12.2140164 C25.0286135,12.2140164 28.6989939,15.8604388 28.6989939,20.356028 C28.6989939,24.8516173 25.0286135,28.4980397 20.4989939,28.4980397 C15.9693742,28.4980397 12.2989939,24.8516173 12.2989939,20.356028 M20.4989939,53 C20.4989939,53 41,40.7120561 41,20.356028 C41,9.11305889 31.8220368,0 20.4989939,0 C9.17595092,0 0,9.11305889 0,20.356028 C0,40.7120561 20.4989939,53 20.4989939,53" id="Fill-1" fill="#FC534E" mask="url(#mask-2)"></path>
            </g>
        </g>
    </g>
</svg>